<svg xmlns="http://www.w3.org/2000/svg" width="53.001" height="37"><path d="M8.439 10.204a2.953 2.953 0 01-.911-2.142v-4.44c.237-.039.396-.195.396-.429V1.246c0-.234-.159-.428-.396-.428A.83.83 0 006.696 0H4.239c-.435 0-.832.351-.832.818-.237.039-.395.194-.395.428v1.947c0 .233.158.39.396.429v4.401a2.95 2.95 0 01-.911 2.143l-.99.974A5.016 5.016 0 000 14.722v20.915C0 36.377.634 37 1.387 37H9.51c.753 0 1.387-.623 1.387-1.363V14.722c0-1.324-.555-2.609-1.506-3.583l-.952-.935zm21.072 0a2.946 2.946 0 01-.911-2.142v-4.44c.237-.039.396-.195.396-.429V1.246c0-.234-.159-.428-.396-.428A.83.83 0 0027.768 0h-2.457a.83.83 0 00-.832.818c-.237.039-.396.194-.396.428v1.947c0 .233.159.39.396.429v4.401a2.95 2.95 0 01-.911 2.143l-.991 1.012a5.028 5.028 0 00-1.505 3.583v20.876c0 .74.634 1.363 1.387 1.363h8.123c.753 0 1.387-.623 1.387-1.363V14.722c0-1.324-.555-2.609-1.506-3.583l-.952-.935zm22.022.974l-.991-.974a2.95 2.95 0 01-.911-2.143V3.622c.238-.039.396-.195.396-.429V1.246c0-.234-.158-.428-.396-.428A.83.83 0 0048.799 0h-2.457a.83.83 0 00-.832.818c-.237.039-.396.194-.396.428v1.947c0 .233.158.39.396.429v4.401a2.95 2.95 0 01-.911 2.143l-.99.974a5.023 5.023 0 00-1.506 3.583v20.915c0 .74.634 1.363 1.387 1.363h8.123c.753 0 1.387-.623 1.387-1.363V14.722c.039-1.324-.517-2.609-1.467-3.544z" fill="#685336"/></svg>