<svg xmlns="http://www.w3.org/2000/svg" width="208.999" height="27.007"><path fill-rule="evenodd" clip-rule="evenodd" fill="#FFF" d="M205.862 22.425c.471.975.958 1.836 1.481 2.586a13.38 13.38 0 001.655 1.996h-8.88c.329-.34.584-.674.741-1.006a2.29 2.29 0 00.239-1.028c0-.295-.029-.604-.097-.93s-.157-.613-.271-.87l-1.032-2.057h-16.936l-.854 1.77c-.112.279-.209.59-.285.922a4.505 4.505 0 00-.104.984c0 .445.083.855.247 1.231.172.37.412.704.733.983h-8.924a14.858 14.858 0 001.646-1.98c.494-.719.996-1.59 1.49-2.602l10.198-20.429c.135-.295.224-.53.275-.688a1.46 1.46 0 00.076-.447c0-.083-.03-.211-.089-.363a3.424 3.424 0 00-.219-.477l9.087-.02a5.283 5.283 0 00-.254.567.938.938 0 00-.076.34c0 .121.03.265.084.447.059.173.141.37.246.574l9.823 20.497zm-21.249-5.363h13.35l-6.835-13.78-6.515 13.78zM6.843 3.547v18.604c0 1.302.165 2.329.494 3.086.33.749.861 1.339 1.609 1.77H0c.749-.431 1.287-1.021 1.625-1.77.337-.757.501-1.784.501-3.086V4.87c0-1.323-.164-2.367-.501-3.124A3.696 3.696 0 000 0h11.006c-.083.174-.15.332-.195.468a1.202 1.202 0 00-.067.393c0 .121.022.258.067.424a7.3 7.3 0 00.195.575l8.138 20.253 8.311-20.298c.075-.205.127-.378.165-.522.037-.136.06-.25.06-.34a1.34 1.34 0 00-.067-.378A4.854 4.854 0 0027.371 0h11.231c-.742.416-1.288.998-1.625 1.747-.337.756-.502 1.8-.502 3.124v17.281c0 1.285.15 2.277.442 2.973.291.695.785 1.324 1.489 1.883h-8.977c.704-.559 1.198-1.188 1.489-1.876.293-.68.442-1.678.442-2.979V4.008l-9.217 21.269c-.007.045-.037.12-.082.227-.12.311-.18.537-.18.688 0 .084.022.196.067.34s.112.303.194.477H15.92c.053-.189.105-.354.15-.484.045-.136.066-.219.066-.248 0-.159-.097-.469-.284-.932a.598.598 0 00-.045-.105L6.843 3.547zM43.49 25.669a3.302 3.302 0 001.463-1.581c.305-.675.452-1.581.452-2.712V5.63c0-1.117-.155-2.017-.465-2.705a3.37 3.37 0 00-1.45-1.587h24.773c-.114.415-.195.715-.235.899-.041.184-.061.34-.061.457 0 .231.155.776.465 1.648.311.873.554 1.622.722 2.249-1.039-.613-2.267-1.057-3.676-1.336-1.41-.279-3.15-.422-5.234-.422H50.167v6.527h11.345c.573 0 1.134-.048 1.667-.149a8.207 8.207 0 001.571-.47l-1.66 2.833a2.345 2.345 0 01-.977.921c-.405.197-.885.299-1.451.299H50.167v7.4h10.415c2.029 0 3.871-.205 5.523-.62 1.653-.415 2.981-1.001 3.979-1.759-.195.546-.52 1.328-.958 2.359-.445 1.021-.66 1.709-.66 2.057 0 .198.013.415.047.66.033.239.081.499.148.777H43.49v.001zM82.194 4.731l.297 16.565c.027 1.267.182 2.213.466 2.833.283.628.755 1.138 1.43 1.54h-8.175c.688-.389 1.174-.912 1.47-1.574.298-.668.445-1.601.445-2.799V5.726c0-1.192-.147-2.125-.445-2.8-.296-.675-.782-1.199-1.47-1.587l9.679.02a2.264 2.264 0 00-.148.32.716.716 0 00-.054.238c0 .083.021.164.061.259.04.096.128.252.256.477L97.91 21.697l-.081-15.971c0-1.179-.148-2.119-.452-2.814a3.228 3.228 0 00-1.443-1.573h7.966c-.647.388-1.106.852-1.376 1.396-.27.545-.405 1.485-.405 2.814v17.864c0 .532.041.961.129 1.288.087.327.229.648.425.968h-7.845a2.58 2.58 0 00.189-.381.858.858 0 00.067-.32.778.778 0 00-.081-.28 3.638 3.638 0 00-.256-.456L82.194 4.731zm55.149 16.81c.425.879.862 1.654 1.335 2.329.465.683.966 1.281 1.49 1.799h-7.998c.297-.307.525-.605.667-.906.148-.299.216-.613.216-.927 0-.265-.027-.545-.088-.838a4.021 4.021 0 00-.242-.782l-.932-1.854h-15.256l-.77 1.595a5.543 5.543 0 00-.257.83 4.043 4.043 0 00-.094.887c0 .401.074.77.223 1.109.155.336.371.635.661.887h-8.04a13.555 13.555 0 001.484-1.785c.444-.648.896-1.431 1.342-2.343l9.187-18.404c.122-.267.203-.477.249-.62.047-.15.067-.279.067-.402a.96.96 0 00-.081-.327 3.007 3.007 0 00-.194-.429l8.18-.02a4.71 4.71 0 00-.228.51.858.858 0 00-.067.307c0 .109.026.239.073.403.054.156.129.333.222.517l8.851 18.464zm-19.142-4.831h12.025l-6.158-12.416-5.867 12.416zM157.68 1.338c2.503 0 4.561.19 6.172.565 1.619.381 2.988.988 4.121 1.813 1.437 1.049 2.55 2.398 3.34 4.047.789 1.649 1.187 3.461 1.187 5.43 0 8.925-6.597 12.476-14.644 12.476h-12.842c.688-.389 1.174-.912 1.471-1.581.297-.661.445-1.594.445-2.792V5.732c0-1.199-.148-2.132-.445-2.807s-.783-1.199-1.471-1.587h12.666zm-5.99 20.856h5.274c3.703 0 6.382-.701 8.034-2.099s2.481-3.638 2.481-6.726c0-3.045-.836-5.225-2.508-6.554-1.674-1.322-4.493-1.983-8.459-1.983h-4.823v17.362h.001z"/></svg>