<svg xmlns="http://www.w3.org/2000/svg" width="255" height="300.69"><path fill="#2A2A2A" d="M170.446 123.691v11.039h7.412c-1.296-3.037-2.136-6.745-2.492-11.039h-4.92zm10.496 7.2c.088.143.229.24.401.278a.614.614 0 00.738-.479c3.562-16.574.033-30.965-.006-31.108a.617.617 0 00-.26-.355c-.072-.018-.105-.025-.133-.036-.094-.036-.19-.074-.29-.074a.198.198 0 00-.072.011.625.625 0 00-.453.753c.147.597 3.422 14.599 0 30.556a.582.582 0 00.075.454zM54.75 161.389a.62.62 0 00.828-.275c7.651-15.484 2.338-40.117 1.081-45.332l-.625.061-.583.234c1.235 5.138 6.485 29.351-.991 44.478a.628.628 0 00.29.834zm.686 5.913v19.06c1.299-.414 2.432-.768 3.54-1.094a1.452 1.452 0 01-.069-.435v-24.067c-1.396 3.577-2.84 5.706-3.471 6.536zm16.676-49.7c.716-.341 2.172-.903 4.377-1.148v-1.765c-2.507.39-3.905 1.025-3.924 1.037a1.175 1.175 0 01-.453.117v1.759zm2.061-7.659c0-.159.036-.315.105-.452-.798.219-1.501.438-2.166.681v3.266c.469-.186 1.15-.417 2.061-.645v-2.85zM94.28 93.677v15.884l2.679-2.276a1.891 1.891 0 01-.283-.979V93.677H94.28zm-15.939 18.509v-3.36c0-.065.012-.121.024-.178-.773.102-1.559.242-2.348.413.275.204.438.522.438.883v2.427a26.266 26.266 0 011.886-.185zm96.262 7.781l-4.042-3.49H126.18c-.68 0-1.235-.551-1.235-1.232 0-.68.556-1.232 1.235-1.232h41.52l-3.289-2.836h-27.013a1.23 1.23 0 01-1.232-1.232c0-.68.547-1.231 1.232-1.231h24.149l-2.801-2.415a.368.368 0 01-.214.069h-15.595a1.233 1.233 0 010-2.464h13.033l-3.108-2.679h-42.964L87.74 119.967h86.863zm-102.339 4.212a.74.74 0 01-.151.055v10.496h19.706v-11.039h-9.161a1.861 1.861 0 01-1.202-3.283l8.874-7.511a1.958 1.958 0 01-.238-.908v-1.755a15.762 15.762 0 00-1.997-.814 5.443 5.443 0 00-.462-.13 6.767 6.767 0 01-.269-.076 22.683 22.683 0 00-1.55-.39c-.244-.05-.495-.08-.749-.118l-.16-.022a19.95 19.95 0 00-2.51-.229 23.066 23.066 0 00-1.861-.008c.058.11.091.237.091.377v3.306h.411c.169 0 .345.003.522.009.305.012.589.145.791.368.206.225.314.515.3.82-.013.297-.13.571-.333.775-.061.065-.139.086-.187.101l-.101.045c-.12.078-.277.173-.489.173h-.051a24.85 24.85 0 00-1.019-.022c-.556 0-1.12.02-1.748.056.03.071.054.153.054.243v1.644c.13-.006.272-.003.42-.003.103 0 .206.003.312.005.317.007.595.134.807.356a1.143 1.143 0 01-.834 1.93l-.193-.004c-.133 0-.251.004-.375.008l-.269.003a17.19 17.19 0 00-2.398.175l-.26.038c-.646.112-1.241.245-1.725.391l-.124.041c-.456.149-.821.287-1.063.398l-.07.036a5.52 5.52 0 00-.332.171 1.17 1.17 0 01-.559.18v1.631c1.081-.497 2.894-1.209 4.618-1.291l.069-.003c.182 0 .33.084.45.163l.076.036c.084.032.16.048.227.113.227.207.365.48.374.771.03.63-.456 1.169-1.084 1.198a5.245 5.245 0 00-.387.041v3.096a1.14 1.14 0 11-2.283 0v-2.508c-.948.354-1.692.743-1.908.865zm-28.146 66.502c2.353-1.082 5.038-2.155 7.98-3.188v-20.25c-16.19-20.265.429-59.7 1.145-61.372.136-.315.335-.564.604-.737.076-.053.164-.068.233-.08.026-.007.066-.011.087-.018l.094-.042c.143-.059.306-.126.52-.126h.069a1.676 1.676 0 011.517 1.167c3.211 10.202 5.129 19.856 5.709 28.695h7.5v-25.436c0-.522.311-.988.804-1.184.876-.347 1.778-.66 2.772-.954.169-.047.335-.088.498-.13l.342-.08c.649-.18 1.29-.352 1.927-.482.199-.04.399-.069.593-.097l.419-.069c.563-.095 1.146-.195 1.713-.255.257-.03.511-.044.765-.059l.316-.022a24.428 24.428 0 011.593-.077c.042-.004.084-.007.133-.007.133-.017.269-.014.398.003.045.007.091.015.136.015 1.48.018 2.86.148 4.105.38.066.008.136.026.199.047.048.011.1.02.145.032 1.368.281 2.567.637 3.658 1.08V91.584c0-1.155.937-2.093 2.093-2.093h6.588c1.157 0 2.094.938 2.094 2.093v12.401l7.146-6.045a1.862 1.862 0 011.202-.442h44.342c.449 0 .885.16 1.217.455l20.419 17.602c.58-13.123 4.494-26.084 4.53-26.212.17-.542.713-.924 1.317-.927a1.32 1.32 0 011.257 1.056c5.953 28.759 3.374 40.645 1.175 45.26h16.341c1.99-10.352 5.015-18.466 5.142-18.804.205-.551.694-.888 1.452-1.003.701.026 1.275.459 1.469 1.082 11.568 36.802 1.432 51.873-.855 54.653v14.934c2.045.597 3.945 1.211 6.129 1.96 4.688-11.034 7.146-23.063 7.315-35.762.32-24.779-9.028-48.193-26.317-65.938-17.299-17.746-40.467-27.697-65.25-28.02l-1.224-.006c-50.473 0-92.071 41.07-92.73 91.557-.19 14.932 2.891 28.825 9.174 41.296zm146.587 82.033l-11.723-27.059a107.437 107.437 0 01-17.019 7.496l9.192 19.563h19.55zm-45.925-15.235l2.586 8.25a1.619 1.619 0 011.205-.966l11.479-2.075c.096-.017.193-.023.296-.023h.048l.082.034a1.47 1.47 0 01.927.386c.29.278.462.577.522.905a1.612 1.612 0 01-1.305 1.875l-11.475 2.075c-.42.079-.798-.013-1.16-.249l1.573 5.021h15.743l-3.999-19.338a107.342 107.342 0 01-16.522 4.105zm13.025 1.771l-9.502 1.753a1.132 1.132 0 01-1.329-.91 1.14 1.14 0 01.915-1.331l9.5-1.759a.916.916 0 01.583.095l.072.041a.174.174 0 00.048.007c.043.014.109.027.179.076.241.183.398.422.447.697a1.144 1.144 0 01-.913 1.331zm-30.559-4.504c57.092 0 103.541-46.448 103.541-103.54 0-57.09-46.449-103.535-103.541-103.535-57.088 0-103.532 46.445-103.532 103.535 0 57.092 46.444 103.54 103.532 103.54zm-9.412-23.939a.456.456 0 01-.537.343l-1.232-.282-2.305 9.924 1.22.278a.487.487 0 01.29.203.445.445 0 01.052.348l-.384 1.676a.463.463 0 01-.447.353.499.499 0 01-.097-.013l-5.132-1.194a.464.464 0 01-.341-.547l.381-1.669a.423.423 0 01.208-.287.499.499 0 01.254-.063l.042.002 1.175.27 1.746-7.509-6.216 9.173a.425.425 0 01-.478.189.445.445 0 01-.351-.373l-1.697-11.1-1.758 7.586 1.108.256c.114.03.224.102.287.207a.452.452 0 01.054.346l-.384 1.664c-.057.232-.274.348-.468.348l-.045-.003-4.921-1.134a.468.468 0 01-.29-.204.495.495 0 01-.058-.347l.387-1.666c.055-.234.306-.4.541-.34l1.229.286 2.305-9.929-1.224-.28a.469.469 0 01-.29-.204.466.466 0 01-.055-.348l.387-1.668a.476.476 0 01.206-.284.465.465 0 01.332-.053l4.452 1.03a.456.456 0 01.345.376l1.443 9.436 5.319-7.862a.482.482 0 01.396-.195l.094.008 4.498 1.043a.457.457 0 01.341.546l-.382 1.663zm7.908-32.841h19.021c.74 0 1.332.595 1.332 1.329 0 .736-.592 1.329-1.332 1.329h-19.021a1.329 1.329 0 110-2.658zm-.066-5.508c0-.737.595-1.329 1.326-1.329h7.497a1.33 1.33 0 010 2.658h-7.497a1.328 1.328 0 01-1.326-1.329zm22.68 15.084c.737 0 1.336.595 1.336 1.329 0 .736-.599 1.329-1.336 1.329h-32.501a1.329 1.329 0 110-2.658h32.501zm1.091 8.858c0 .735-.595 1.328-1.323 1.328H131.33a1.33 1.33 0 010-2.659h16.794a1.33 1.33 0 011.323 1.331zm-18.319 26.648c-1.242.869-2.677 1.311-4.274 1.311h-.1c-2.277-.023-4.15-.802-5.573-2.305-1.407-1.486-2.114-3.42-2.084-5.742.024-2.286.782-4.189 2.235-5.649 1.435-1.433 3.289-2.157 5.513-2.157h.108c1.254.021 2.404.351 3.413.97.137.085.27.179.411.278l.006-.512c0-.123.049-.239.136-.32a.45.45 0 01.314-.132l1.722.022c.121 0 .235.052.326.141a.463.463 0 01.121.32l-.061 4.848a.457.457 0 01-.456.451l-1.713-.021a.455.455 0 01-.414-.267c-.097-.214-.189-.438-.286-.664l-.091-.209a4.507 4.507 0 00-1.169-1.45 3.623 3.623 0 00-2.296-.826h-.088c-1.374 0-2.455.444-3.319 1.358-.891.943-1.354 2.242-1.371 3.865-.019 1.603.404 2.918 1.266 3.9.864.977 1.966 1.459 3.377 1.475h.078c.919 0 1.779-.303 2.553-.9.813-.626 1.365-1.452 1.67-2.524a.433.433 0 01.239-.284.45.45 0 01.383-.004l1.729.717a.452.452 0 01.271.539c-.437 1.608-1.299 2.876-2.576 3.771zm24.191-2.797a.468.468 0 01-.302.203l-5.147 1.074c-.169.031-.254.006-.348-.063a.443.443 0 01-.193-.286l-.354-1.679a.462.462 0 01.066-.34.44.44 0 01.297-.202l1.133-.238-1.577-7.543-1.785 10.941a.45.45 0 01-.354.371l-.085.008a.465.465 0 01-.393-.201l-6.204-9.354 1.592 7.625 1.118-.23c.039-.008.069-.008.094-.008.1 0 .189.024.253.07.094.06.173.168.196.286l.348 1.678a.453.453 0 01-.356.538l-4.908 1.027a.455.455 0 01-.541-.353l-.353-1.674a.461.461 0 01.353-.537l1.235-.26-2.09-9.97-1.229.252a.452.452 0 01-.537-.352l-.354-1.672a.456.456 0 01.354-.541l4.461-.938a.443.443 0 01.468.192l5.28 7.961 1.525-9.376a.448.448 0 01.359-.371l4.521-.944c.033-.006.07-.006.088-.006a.444.444 0 01.451.357l.348 1.674a.447.447 0 01-.351.535l-1.227.262 2.084 9.974 1.229-.253a.305.305 0 01.1-.014c.209 0 .398.153.441.359l.351 1.678a.451.451 0 01-.057.34zm9.778-3.897l-5.397 2.172a.588.588 0 01-.166.027.564.564 0 01-.185-.033.453.453 0 01-.245-.247l-.637-1.592a.46.46 0 01.254-.597l1.371-.553-3.797-9.448-1.378.549a.37.37 0 01-.347-.004.472.472 0 01-.245-.245l-.641-1.592a.463.463 0 01.254-.592l5.404-2.18a.514.514 0 01.351.011.435.435 0 01.238.24l.644 1.599a.467.467 0 01-.251.597l-1.377.551 3.793 9.444 1.375-.557a.451.451 0 01.347.005c.109.05.203.138.248.247l.641 1.6a.471.471 0 01-.254.598zM127.672 54.652l1.272.008c25.623.331 49.585 10.622 67.476 28.976 17.882 18.353 27.547 42.574 27.215 68.199-.462 35.657-18.416 65.426-49.265 81.672a1.517 1.517 0 01-.674.182l-.069.008a1.6 1.6 0 01-1.531-1.18c-.101-.357-2.604-9.033-12.246-24.813-7.932-12.983-23.925-24.709-27.348-27.132-3.612 2.465-20.63 14.529-30.042 29.366-9.095 14.351-12.225 25.803-12.248 25.915a1.615 1.615 0 01-.895 1.044 1.61 1.61 0 01-1.374-.041 132.06 132.06 0 01-16.951-10.526l-.016.025-.188-.162a1.237 1.237 0 00-.09-.08c-12.922-9.515-22.797-20.869-29.339-33.745-6.566-12.915-9.793-27.392-9.587-43.028.681-52.212 43.7-94.688 95.9-94.688zm30.961 78.579h-2.677v4.902h2.677v-4.902zm-4.695 6.928h-2.682v4.86h2.682v-4.86zm0-6.928h-2.682v4.902h2.682v-4.902zm-13.151 49.62c6.969 5.579 16.115 13.946 21.77 23.196 7.639 12.499 10.895 20.649 11.994 23.76a92.546 92.546 0 0015.227-10.517c-17.725-23.73-37.924-32.967-48.991-36.439zm-30.199-37.832h2.673v-4.86h-2.673v4.86zm48.045-4.86h-2.677v4.86h2.677v-4.86zm-47.371 44.039c-15.124 3.196-36.276 10.137-54.36 25.175a100.797 100.797 0 0013.232 12.365c13.679-21.277 29.64-32.11 41.128-37.54zm80.892 32.964a86.121 86.121 0 0010.971-12.161c-17.888-12.703-37.757-18.675-51.832-21.47 11.179 5.097 26.841 14.976 40.861 33.631zm-81.566-79.028h2.673v-4.902h-2.673v4.902zm23.083 6.885h2.673v-4.86h-2.673v4.86zm-27.783 24.472h2.674v-4.867h-2.674v4.867zm35.316 6.943c8.805.219 17.423.763 25.62 1.618v-54.361H95.437v54.572c8.836-.991 18.248-1.61 27.992-1.838v-16.141c0-4.482 3.983-8.131 8.886-8.131s8.89 3.649 8.89 8.131v16.15zm-23.27-18.742h-2.132v13.071c0 .701-.574 1.269-1.275 1.269h-9.907a1.271 1.271 0 01-1.269-1.269v-13.071h-2.132v-.19a4.352 4.352 0 014.353-4.35h8.016a4.354 4.354 0 014.347 4.35v.19zm.242-9.631H100.88a1.232 1.232 0 010-2.466h2.471v-12.363h-2.132v-.189a4.352 4.352 0 014.353-4.353h8.016a4.353 4.353 0 014.347 4.353v.189h-2.132v12.363h2.374c.677 0 1.229.551 1.229 1.231a1.236 1.236 0 01-1.23 1.235zm22.844-14.83h-2.138v13.056a1.27 1.27 0 01-1.27 1.27h-9.907c-.7 0-1.271-.568-1.271-1.27v-13.056h-2.136v-.189a4.353 4.353 0 014.347-4.353h8.025a4.357 4.357 0 014.35 4.353v.189zm22.847 24.461h-2.142v13.071a1.27 1.27 0 01-1.271 1.269h-9.913a1.273 1.273 0 01-1.272-1.269v-13.071h-2.126v-.19a4.354 4.354 0 014.35-4.35h8.017a4.357 4.357 0 014.358 4.35v.19zm-17.639-12.098h2.488v-12.363h-2.135v-.189a4.356 4.356 0 014.35-4.353h8.028a4.359 4.359 0 014.35 4.353v.189h-2.133v12.363h2.501a1.233 1.233 0 010 2.466h-17.449a1.232 1.232 0 110-2.466zm-12.557-7.46h2.673v-4.902h-2.673v4.902zm-70.568 45.991c8.75-2.326 18.422-4.164 28.749-5.464a1.211 1.211 0 01-.033-.271v-39.473H63.103v45.208zm3.198-13.671h2.634v-21.026h-2.64v-.189c0-2.762 2.238-5.013 4.993-5.013h9.297a5.015 5.015 0 015.008 5.013v.189h-2.646v21.026h2.64c.68 0 1.235.55 1.235 1.231s-.556 1.232-1.235 1.232H66.301a1.233 1.233 0 110-2.463zm-.16 3.663h9.412c.628 0 1.142.512 1.142 1.139 0 .626-.514 1.14-1.142 1.14h-9.412a1.14 1.14 0 010-2.279zm62.833-29.098h2.674v-4.86h-2.674v4.86zm-23.086-6.885h2.674v-4.902h-2.674v4.902zm88.161 97.484a107.976 107.976 0 01-14.526 9.727l17.701 27.369h6.551c-.157-2.327-.006-4.399.463-6.324a25.318 25.318 0 014.152-8.971l-14.341-21.801zm-9.539 16.361c-.405 0-.785-.221-.987-.566a1.153 1.153 0 01.419-1.562l11.106-6.392c.173-.097.375-.152.571-.152.069 0 .121.018.16.037.103.021.154.035.212.058.289.104.495.26.615.479a1.14 1.14 0 01-.422 1.555l-11.107 6.392a1.102 1.102 0 01-.567.151zm16.483.014l-11.07 6.39a1.622 1.622 0 01-2.211-.589 1.621 1.621 0 01.592-2.211l11.07-6.387c.221-.124.456-.185.74-.192-.021-.005.015-.019.069-.019.054 0 .1.014.13.026.175.014.354.056.531.142l.072.032c.036.015.082.039.121.06.241.156.42.328.547.541a1.616 1.616 0 01-.591 2.207zm-95.105-89.394h2.674v-4.907h-2.674v4.907zm0-17.58h2.674v-4.86h-2.674v4.86zm23.086-6.885h2.674v-4.902h-2.674v4.902zm78.183 27.086a.687.687 0 00.19.027.625.625 0 00.599-.432c6.243-19.278.26-38.647 0-39.458a.61.61 0 00-.293-.335c0-.004-.027-.007-.055-.014l-.055-.017c-.087-.027-.184-.06-.277-.06a.59.59 0 00-.464.321.654.654 0 00-.046.488c.069.186 6.198 19.557 0 38.695a.63.63 0 00.401.785zm-96.569 4.271h2.673v-4.867h-2.673v4.867zm-30.181-8.62h-3.329v8.417l3.329-.063v-8.354zm0-11.443h-3.329v9.16h3.329v-9.16zm-5.609 0h-3.319v9.16h3.319v-9.16zm0 11.443h-3.319v8.527l3.319-.066v-8.461zm108.201 0h-3.331v8.556h3.331v-8.556zm5.601-11.443h-3.316v9.16h3.316v-9.16zm-18.154 28.961v.057c9.717 1.139 18.894 2.722 27.297 4.708v-44.237h-27.297v39.472zm25.385-3.133c0 .626-.514 1.14-1.139 1.14h-9.419a1.14 1.14 0 110-2.279h9.419c.625 0 1.139.512 1.139 1.139zm-21.657-4.802h2.957v-21.026h-2.655v-.189c0-2.762 2.256-5.013 5.02-5.013h9.285a5.017 5.017 0 015.009 5.013v.189h-2.652v21.026h2.957c.68 0 1.235.55 1.235 1.231s-.556 1.232-1.235 1.232h-19.92a1.232 1.232 0 01-.001-2.463zm8.825-21.026h-3.331v9.16h3.331v-9.16zm-72.411 13.171h2.673v-4.907h-2.673v4.907zm78.012-1.728h-3.316v8.556h3.316v-8.556zM46.111 194.394a86.738 86.738 0 008.699 12.578c18.35-15.282 39.805-22.438 55.439-25.783-36.294 2.339-56.755 9.907-64.138 13.205zM226.29 55.392c-3.794-.402-7.346-1.592-10.551-3.542a25.956 25.956 0 01-3.528-2.599l-16.948 18.503a109.235 109.235 0 0113.991 13.721l17.036-20.452v-5.631zm-12.309 17.51a1.147 1.147 0 01-1.607.118l-9.439-8.163a1.148 1.148 0 01-.112-1.61c.19-.222.459-.354.764-.375l.019-.012.072-.008c.272 0 .544.095.752.275l9.434 8.163c.235.2.371.483.398.787.018.301-.081.592-.281.825zm4.676-6.326a1.61 1.61 0 01-1.238.575c-.378 0-.746-.133-1.039-.377l-9.727-8.187a1.61 1.61 0 01-.196-2.273c.133-.169.314-.305.534-.408a.815.815 0 01.17-.058l.054-.012c.133-.041.266-.082.408-.084-.013-.003.024-.014.072-.014h.039l.066.023c.375.033.688.152.931.354l9.727 8.185a1.62 1.62 0 01.199 2.276zm-91.411-23.085c6.341 0 12.811.59 19.232 1.75l.371-15.229H129.29l-2.159 13.479h.115zm16.559-2.336l-11.922-.435a1.14 1.14 0 01-.794-.359 1.153 1.153 0 01-.303-.82c.021-.619.486-1.06 1.16-1.096h.018l11.883.434c.3.012.587.139.789.361a1.138 1.138 0 01-.831 1.915zm-11.88-8.867h11.88a1.614 1.614 0 010 3.229h-11.88c-.888 0-1.615-.724-1.615-1.615s.727-1.614 1.615-1.614zm71.838-2.276h-4.824L181.401 58.15c4.67 2.729 9.144 5.81 13.306 9.164l13.583-22.346a25.35 25.35 0 01-4.053-8.835c-.45-1.847-.607-3.848-.474-6.121zm4.573 254.361c-.607-.731-1.188-1.462-1.68-2.267-1-1.657-1.755-3.548-2.311-5.786H50.573c-.56 2.238-1.312 4.129-2.314 5.786-.492.805-1.072 1.535-1.679 2.267h161.756zM226.29 68.977l-16.562 13.05c6.838 8.146 12.408 17.173 16.562 26.854V68.977zm-78.912-23.566a106.91 106.91 0 0117.114 4.727l4.072-20.125h-16.088l-5.098 15.398zM46.577 18.144c.586.703 1.181 1.456 1.682 2.278 1.046 1.725 1.822 3.685 2.365 5.983h143.409l.055-.128.241.128h9.962c.544-2.298 1.323-4.259 2.365-5.983.501-.825 1.103-1.575 1.686-2.278H46.577zm-.704 27.874l13.275 21.793a109.02 109.02 0 0114.365-9.898l-17.045-27.9h-5.313c.133 2.265-.024 4.27-.475 6.125a25.293 25.293 0 01-4.839 9.829c.011.017.02.037.032.051zM67.6 50.827c.069 0 .127.018.169.032l.058.02c.052.014.097.022.148.039.283.103.489.265.619.482a1.15 1.15 0 01-.423 1.559l-11.106 6.39a1.132 1.132 0 01-.565.154c-.414 0-.785-.221-.993-.569a1.15 1.15 0 01.423-1.56l11.106-6.39a1.09 1.09 0 01.564-.157zm-16.048-.257l11.073-6.389c.211-.122.456-.184.73-.193-.012-.003.024-.018.073-.018.057 0 .097.015.13.027.187.018.365.066.537.141.085.036.136.063.188.092.248.157.426.334.547.547.438.77.178 1.756-.596 2.205L53.165 53.37a1.673 1.673 0 01-.81.213 1.615 1.615 0 01-1.396-.805 1.621 1.621 0 01.593-2.208zm140.966-20.558h-18.097l-9.197 20.407a106.971 106.971 0 0115.613 7.411l11.681-27.818zm-20.637 8.063c.1-.26.278-.486.541-.684a1.626 1.626 0 01.905-.347l.07-.008c.193 0 .387.032.57.104l10.732 4.082c.404.152.725.453.9.85.175.396.187.834.036 1.237a1.62 1.62 0 01-2.081.935l-10.735-4.082a1.575 1.575 0 01-.903-.851 1.6 1.6 0 01-.035-1.236zm7.959 12.288l-10.034-4.869a1.113 1.113 0 01-.583-.645 1.114 1.114 0 01.052-.876c.105-.229.302-.401.573-.524.076-.032.136-.042.196-.054.019-.004.03-.012.052-.02.166-.056.472-.042.704.069l10.034 4.868a1.132 1.132 0 01.528 1.522 1.134 1.134 0 01-1.027.642c-.178 0-.344-.036-.495-.113zm50.059 67.569c0 .156-.036.296-.075.418a107.363 107.363 0 01-.293 66.584v62.067c1.863.039 3.69.275 5.425.693.142.019 1.915.231 4.419 1.133V53.686c-2.688.971-4.658 1.19-4.682 1.19-1.456.364-3.036.58-4.794.646v10.43l.078.079-.078.079v51.822zM4.936 4.934v31.57c1.637 6.845 5.944 10.368 9.273 12.113.048.017.1.048.163.086l.057.033c3.055 1.551 5.712 1.922 6.208 1.981 1.195.284 2.419.459 3.881.559l.16.009c.212.015.423.03.632.039.256.006.51.011.764.011 1.045 0 2.057-.071 2.993-.206.085-.01.173-.033.257-.051.079-.018.157-.038.235-.05 1.042-.177 2.1-.447 3.154-.805.308-.1.616-.204.915-.323 1.35-.526 2.422-1.042 3.38-1.625 4.856-2.95 8.264-7.615 9.608-13.13a16.473 16.473 0 00-1.934-12.549 16.452 16.452 0 00-10.248-7.503c-.879-.215-1.804-.323-2.837-.341h-.136c-.574 0-1.163.041-1.761.124-.136.012-.278.009-.399.035-.742.124-1.491.322-2.237.587-.127.05-.254.107-.378.164-.094.043-.188.089-.281.125-.438.192-.951.417-1.426.695a8.681 8.681 0 00-.564.369l-.163.108c-.447.301-.827.582-1.166.866a13.235 13.235 0 00-1.643 1.685l-.105.133c-.15.184-.299.365-.435.562-.266.372-.525.807-.821 1.362-.052.089-.098.177-.151.265-.075.139-.157.276-.224.419a13.554 13.554 0 00-.81 2.292c-1.284 5.283 1.97 10.632 7.252 11.919a7.257 7.257 0 001.662.205h.066c.313 0 .643-.025 1.003-.068.081-.006.169-.01.26-.02.44-.079.875-.192 1.292-.343.079-.032.154-.065.229-.103l.137-.063c.241-.098.559-.24.849-.406a5.24 5.24 0 00.335-.221l.085-.056a8.13 8.13 0 00.68-.508c.133-.112.263-.235.383-.353.188-.188.378-.393.577-.627l.072-.1c.085-.101.166-.201.239-.305.187-.267.344-.551.477-.797a1.66 1.66 0 01.088-.16c.042-.077.085-.149.124-.235a7.63 7.63 0 00.471-1.331 5.528 5.528 0 00-.652-4.207 5.525 5.525 0 00-3.431-2.518c-.396-.095-.87-.1-1.335-.053a3.96 3.96 0 00-.538.095 3.868 3.868 0 00-.864.319l-.081.041c-.133.066-.263.125-.375.203a4.092 4.092 0 00-.73.666c-.039.045-.085.089-.127.13-.066.063-.13.125-.185.204-.32.455-.528.896-.644 1.359a2.801 2.801 0 00.333 2.119 2.779 2.779 0 001.733 1.271 2.091 2.091 0 011.534 2.526 1.937 1.937 0 01-.326.703 1.192 1.192 0 01-.114.128l-.052.05c-.1.108-.217.231-.377.336a1.123 1.123 0 01-.185.104l-.058.032a2.491 2.491 0 01-.438.16c-.094.02-.193.038-.293.045-.03 0-.052.008-.066.012-.151.03-.399.015-.607-.03a7.001 7.001 0 01-5.147-8.448c.121-.479.293-.956.526-1.465.042-.102.096-.19.15-.283l.079-.148c.147-.267.319-.58.534-.882.105-.151.224-.29.342-.437.227-.275.426-.496.637-.693.136-.134.272-.263.42-.382.221-.193.472-.378.752-.568l.094-.063c.121-.079.229-.157.359-.227a7.99 7.99 0 01.945-.461c.052-.021.104-.045.154-.068.069-.035.148-.071.227-.098.48-.175.967-.3 1.438-.38.049-.006.094-.006.137-.011l.078-.009c.317-.041.704-.09 1.117-.09a.47.47 0 01.1.011c.698.013 1.29.089 1.837.222a9.724 9.724 0 016.026 4.406 9.703 9.703 0 011.136 7.369 11.278 11.278 0 01-.74 2.075 3.346 3.346 0 01-.215.417 2.226 2.226 0 00-.114.207c-.206.379-.456.821-.743 1.237-.143.201-.302.391-.456.58l-.046.056c-.296.361-.583.678-.885.971-.193.189-.396.376-.598.554-.314.266-.649.518-1.063.789l-.121.08a8.434 8.434 0 01-.528.347c-.45.261-.925.47-1.323.64a2.018 2.018 0 00-.224.103c-.114.053-.22.105-.341.146-.683.243-1.362.424-2.027.533-.13.021-.263.012-.393.033a10.72 10.72 0 01-1.501.128c-.036 0-.085-.011-.124-.019a.37.37 0 00-.061-.006 11.573 11.573 0 01-2.582-.311c-7.519-1.839-12.148-9.453-10.318-16.973.238-.991.589-1.984 1.075-3.037.097-.207.205-.398.314-.593.058-.103.114-.203.169-.305.401-.752.737-1.313 1.091-1.817.196-.278.416-.543.625-.799l.097-.12c.447-.543.87-1.015 1.305-1.436.302-.297.586-.56.87-.802.468-.393.981-.775 1.562-1.165l.193-.131c.238-.16.483-.329.743-.48.547-.317 1.156-.61 1.972-.955.106-.045.203-.093.303-.139.16-.077.317-.151.489-.211a16.626 16.626 0 012.979-.789c.15-.027.316-.02.477-.042.716-.098 1.48-.189 2.274-.189.079 0 .163.006.248.012.154.01.32.012.486.029.069.006.145.01.218.013 1.163.068 2.172.21 3.099.438 2.241.547 4.446 1.535 6.555 2.933h170.956c2.108-1.398 4.316-2.386 6.558-2.933.931-.228 1.931-.365 3.072-.43l.182-.015c.184-.008.368-.02.553-.03.081-.007.16-.015.241-.015.768 0 1.544.103 2.166.184.087.011.169.014.254.023.114.003.235.009.347.033.976.157 1.964.423 2.954.778.179.063.354.148.526.228.103.048.211.1.316.144.535.228 1.238.535 1.921.93.267.154.514.325.756.491l.199.136c.606.408 1.1.776 1.543 1.152.336.279.649.577.879.802.45.434.87.903 1.299 1.432l.121.144c.199.248.414.507.607.779.348.501.688 1.063 1.09 1.81.055.113.121.217.179.325.108.19.215.379.308.581a16.582 16.582 0 011.075 3.034c1.831 7.523-2.8 15.136-10.317 16.976-.804.195-1.641.297-2.57.308a.463.463 0 00-.067.006c-.039.006-.078.014-.114.014-.544 0-1.072-.065-1.534-.124-.13-.017-.254-.012-.375-.038a11.125 11.125 0 01-2.018-.53c-.13-.044-.248-.1-.371-.156-.073-.032-.143-.073-.215-.1a12.563 12.563 0 01-1.305-.634c-.185-.11-.356-.225-.538-.343l-.124-.085c-.41-.273-.746-.525-1.051-.787a12.349 12.349 0 01-.604-.551 9.851 9.851 0 01-.885-.976l-.061-.062c-.15-.184-.299-.369-.438-.566a10.72 10.72 0 01-.746-1.245c-.039-.068-.079-.14-.121-.207-.075-.133-.151-.266-.214-.409a11.03 11.03 0 01-.737-2.074 9.695 9.695 0 011.139-7.373 9.72 9.72 0 016.02-4.406 7.846 7.846 0 011.815-.219.603.603 0 01.139-.017c.411 0 .798.047 1.127.09.072.023.136.012.196.023.48.075.967.205 1.441.38.081.024.15.059.224.091.039.022.093.047.139.066.368.149.686.305.967.47.12.065.232.14.344.22l.1.07a7.467 7.467 0 011.178.95c.2.193.408.418.629.693l.045.051c.103.125.209.252.303.391.172.243.341.524.531.879l.075.133c.055.097.106.19.154.295.229.501.401.979.52 1.462.912 3.75-1.393 7.539-5.138 8.451-.215.045-.462.058-.604.03-.024-.004-.045-.012-.063-.012a2.105 2.105 0 01-.299-.045 1.948 1.948 0 01-.435-.163 2.395 2.395 0 01-.251-.133 1.812 1.812 0 01-.372-.336c-.021-.019-.039-.032-.051-.053a.54.54 0 01-.115-.119 2.04 2.04 0 01-.332-.708 2.09 2.09 0 011.537-2.526 2.773 2.773 0 001.734-1.271c.39-.64.504-1.396.326-2.123a3.847 3.847 0 00-.638-1.347c-.054-.086-.13-.151-.202-.222-.042-.038-.078-.079-.121-.119a3.791 3.791 0 00-.716-.657c-.13-.09-.269-.155-.42-.227l-.051-.025a3.887 3.887 0 00-.858-.319 4.717 4.717 0 00-.537-.095c-.469-.042-.937-.039-1.329.053a5.524 5.524 0 00-3.435 2.518 5.535 5.535 0 00-.652 4.211c.108.427.266.864.475 1.331.039.082.081.16.126.239.03.048.061.101.088.152.176.333.326.583.478.797.097.138.205.268.317.397a7.175 7.175 0 00.957.984c.199.169.426.335.677.503.157.109.284.198.417.276.238.136.504.263.84.403.054.021.105.045.147.068.079.036.151.069.229.101.447.153.882.269 1.299.343.063.007.151.007.227.017.336.046.665.071.979.071h.127a7.455 7.455 0 001.649-.198c5.28-1.287 8.533-6.636 7.249-11.922a12.731 12.731 0 00-.813-2.294 4.334 4.334 0 00-.223-.421c-.049-.08-.094-.162-.14-.245a12.552 12.552 0 00-.83-1.375 8.665 8.665 0 00-.463-.598l-.075-.094a11.742 11.742 0 00-.987-1.084 12.77 12.77 0 00-.656-.603 12.34 12.34 0 00-1.169-.87l-.196-.131a9.385 9.385 0 00-.528-.343 13.44 13.44 0 00-1.438-.696 3.563 3.563 0 01-.272-.124c-.126-.056-.25-.113-.38-.164a13.139 13.139 0 00-2.229-.587c-.066-.012-.133-.015-.199-.022a4.694 4.694 0 01-.205-.012 12.925 12.925 0 00-1.759-.124h-.139c-1.033.018-1.957.126-2.836.341a16.453 16.453 0 00-10.246 7.503 16.466 16.466 0 00-1.933 12.546c1.335 5.515 4.754 10.184 9.608 13.133.963.586 2.026 1.099 3.364 1.617.314.127.632.239.952.344 1.021.341 2.041.604 3.032.783.097.013.19.036.287.059.094.023.196.044.299.061 1.172.169 2.426.245 3.691.202.157-.003.313-.017.474-.028l.251-.017c1.411-.088 2.634-.26 3.736-.53 2.247-.29 13.363-2.339 16.063-14.7l-.003-31.132H4.936zm229.349 246.879c-1.19-.287-2.423-.465-3.894-.563-.257-.017-.514-.034-.768-.046-1.299-.037-2.604.019-3.775.192-.075.014-.15.03-.227.046-.081.021-.166.04-.251.053-1.026.176-2.09.449-3.159.809-.311.099-.622.205-.93.325-1.306.506-2.408 1.034-3.371 1.624-4.854 2.95-8.271 7.614-9.608 13.13a16.461 16.461 0 001.93 12.549 16.471 16.471 0 0010.249 7.501c.867.213 1.794.325 2.846.342h.187c.532 0 1.075-.039 1.665-.115.139-.016.299-.014.449-.035.71-.119 1.459-.316 2.218-.588.133-.045.263-.111.393-.17.091-.047.181-.09.271-.125.401-.174.925-.403 1.426-.688.208-.121.401-.26.604-.393l.13-.086c.438-.299.818-.58 1.147-.857.221-.188.441-.391.68-.625.32-.309.634-.656.97-1.059.188-.232.384-.467.553-.713.26-.367.511-.786.815-1.358.045-.083.091-.163.139-.246a5.58 5.58 0 00.235-.438c.366-.807.632-1.554.81-2.289 1.287-5.279-1.966-10.629-7.249-11.92a7.21 7.21 0 00-1.644-.193h-.069c-.356 0-.719.023-1.069.078-.072.01-.127.008-.189.01a7.822 7.822 0 00-1.309.348c-.072.027-.145.061-.221.092a.973.973 0 01-.145.065 8.003 8.003 0 00-.854.415 5.56 5.56 0 00-.369.242 6.738 6.738 0 00-.728.536c-.13.108-.254.22-.378.341a7.959 7.959 0 00-.58.644l-.054.06c-.082.104-.176.213-.257.328a7.23 7.23 0 00-.483.809c-.03.055-.055.103-.085.154a8.424 8.424 0 00-.123.227 7.878 7.878 0 00-.475 1.338 5.57 5.57 0 004.087 6.718c.393.092.86.092 1.332.053a4.03 4.03 0 00.537-.095c.29-.066.568-.168.861-.319l.063-.026a4.51 4.51 0 00.404-.219c.239-.167.463-.375.716-.666.049-.04.091-.086.13-.128.07-.064.137-.134.19-.208a3.93 3.93 0 00.641-1.354 2.762 2.762 0 00-.329-2.12 2.817 2.817 0 00-1.734-1.267 2.088 2.088 0 01-1.537-2.525c.094-.397.317-.744.683-1.061l.036-.036a.836.836 0 01.103-.089c.32-.229.695-.354 1.112-.378-.01-.007.039-.032.105-.032.163 0 .32.016.483.057 3.745.914 6.05 4.703 5.141 8.447-.121.482-.29.96-.522 1.46a3.68 3.68 0 01-.142.267c-.033.06-.061.109-.088.166a10.24 10.24 0 01-.531.881c-.1.141-.206.271-.312.396l-.036.04c-.218.271-.429.5-.638.699a6.052 6.052 0 01-.413.375c-.23.202-.49.394-.762.573l-.094.063a3.35 3.35 0 01-.344.222c-.29.171-.604.321-.97.47l-.115.055a2.923 2.923 0 01-.244.104 7.966 7.966 0 01-1.444.385c-.084.015-.145.007-.208.018a7.427 7.427 0 01-1.115.092.664.664 0 01-.111-.01 8.081 8.081 0 01-1.84-.229 9.703 9.703 0 01-6.02-4.4 9.684 9.684 0 01-1.139-7.369c.166-.686.407-1.363.737-2.076.063-.133.133-.26.208-.383.036-.08.081-.154.124-.23.188-.354.44-.812.746-1.245.142-.2.29-.385.44-.573l.055-.057c.299-.368.586-.686.888-.982a11.733 11.733 0 011.652-1.334l.136-.091c.176-.114.348-.233.532-.335.423-.25.87-.451 1.286-.629l.218-.1c.13-.057.254-.115.387-.161.68-.251 1.359-.433 2.009-.539.136-.024.284-.019.429-.034.52-.065.991-.125 1.483-.125.036 0 .084.006.127.014a.231.231 0 00.061.008c.924.012 1.767.113 2.57.311 7.518 1.838 12.148 9.452 10.317 16.975a17.002 17.002 0 01-16.552 13c-1.356 0-2.716-.164-4.036-.486-2.247-.545-4.452-1.533-6.569-2.941H41.991c-2.108 1.408-4.319 2.396-6.566 2.941a17.08 17.08 0 01-4.038.486 16.996 16.996 0 01-16.55-12.997c-1.83-7.522 2.8-15.14 10.318-16.978a11.148 11.148 0 012.582-.313c.024 0 .043-.005.061-.007a.748.748 0 01.124-.014c.486 0 .945.057 1.459.123.142.02.299.011.438.038a10.56 10.56 0 012.012.534c.127.044.242.098.369.154.069.036.147.069.221.105.368.151.846.359 1.305.627.178.102.347.217.514.332l.15.098a11.77 11.77 0 011.652 1.338c.302.297.589.614.885.979l.036.041c.157.19.317.384.466.589.299.434.553.891.743 1.242.039.067.075.139.117.203.076.138.151.271.212.416.332.713.573 1.391.74 2.073a9.692 9.692 0 01-1.14 7.372 9.7 9.7 0 01-6.022 4.4 8.04 8.04 0 01-1.81.222.765.765 0 01-.127.013c-.371 0-.73-.041-1.065-.088-.082-.006-.182-.011-.272-.027a7.851 7.851 0 01-1.423-.371 1.278 1.278 0 01-.244-.107c-.058-.021-.108-.047-.169-.071a7.517 7.517 0 01-.919-.448 3.865 3.865 0 01-.354-.227l-.114-.072a9.803 9.803 0 01-.737-.552 8.54 8.54 0 01-1.054-1.076 8.562 8.562 0 01-.348-.443 8.041 8.041 0 01-.522-.872l-.085-.142c-.054-.099-.114-.193-.153-.299a7.524 7.524 0 01-.522-1.458c-.913-3.749 1.389-7.54 5.135-8.454.205-.052.468-.07.625-.037.015.004.033.013.051.013.098.007.2.028.3.047.145.038.287.092.423.161.105.044.184.086.257.137.157.105.277.235.368.335a.993.993 0 01.172.179c.16.229.27.46.326.705a2.09 2.09 0 01-1.534 2.525 2.783 2.783 0 00-1.733 1.273 2.788 2.788 0 00-.329 2.121c.114.461.319.901.64 1.352.055.072.118.141.185.202.042.047.088.088.127.134.185.201.432.461.725.66.124.082.263.152.405.22l.057.033a4.313 4.313 0 001.402.407c.465.039.939.039 1.335-.053a5.569 5.569 0 004.083-6.721 7.39 7.39 0 00-.471-1.335c-.039-.078-.085-.158-.124-.234a1.159 1.159 0 01-.088-.154c-.126-.227-.29-.527-.485-.801a10.549 10.549 0 00-.278-.354l-.033-.044a8.843 8.843 0 00-.577-.628 8.78 8.78 0 00-.384-.353 7.452 7.452 0 00-.677-.498l-.093-.064a3.93 3.93 0 00-.333-.215 7.693 7.693 0 00-.815-.391c-.058-.021-.108-.051-.157-.076-.081-.036-.16-.072-.241-.103a7.235 7.235 0 00-1.29-.338c-.084-.014-.169-.014-.254-.021a7.664 7.664 0 00-1.029-.073h-.058a7.247 7.247 0 00-1.641.193c-5.282 1.291-8.536 6.641-7.252 11.923.188.751.45 1.503.815 2.294.066.15.146.287.229.426.049.082.088.165.136.244.306.572.557.994.825 1.372.145.21.308.403.465.595l.075.094c.336.412.659.768.994 1.091.205.204.423.409.649.599.342.289.728.573 1.178.874l.088.062c.205.139.408.279.625.404.408.236.87.465 1.456.709.094.036.182.075.275.124.114.053.232.112.354.153.761.271 1.516.473 2.24.592.121.021.251.016.375.027.592.08 1.172.123 1.725.123h.196c1.03-.017 1.958-.125 2.837-.342a16.456 16.456 0 0010.248-7.501 16.49 16.49 0 001.939-12.546c-1.351-5.519-4.758-10.183-9.614-13.133-.967-.59-2.036-1.102-3.368-1.619a13.639 13.639 0 00-.948-.333 20.774 20.774 0 00-3.018-.779l-.274-.058a3.63 3.63 0 00-.333-.067 20.896 20.896 0 00-3.676-.202c-.248.006-.495.025-.737.042-1.41.091-2.634.259-3.739.526-1.03.139-3.679.599-6.633 2.124-3.371 1.753-7.705 5.275-9.346 12.183v29.681h245.123v-29.32c-2.874-13.061-15.653-14.609-15.777-14.624zm9.274-200.074v199.038c2.588 1.502 4.775 3.404 6.5 5.658V46.084c-1.722 2.24-3.906 4.14-6.5 5.655zM255 298.222a2.475 2.475 0 01-2.474 2.469H2.471A2.474 2.474 0 010 298.222V2.468A2.47 2.47 0 012.471 0h250.056A2.47 2.47 0 01255 2.468v295.754zM11.342 250.789V51.75c-2.537-1.48-4.69-3.344-6.406-5.549v210.125c1.715-2.193 3.866-4.056 6.406-5.537zM39.18 51.851a25.161 25.161 0 01-10.18 3.5v7.208L44.768 82.02A108.769 108.769 0 0158.674 68.2L41.526 50.218a25.658 25.658 0 01-2.346 1.633zm23.738-21.839l11.101 27.604c5.279-3.008 10.747-5.563 16.266-7.58l-8.682-20.024H62.918zM15.525 53.693v195.164c2.704-.973 4.679-1.203 4.694-1.203a23.7 23.7 0 014.797-.667v-61.918a107.399 107.399 0 01-5.482-33.862c0-11.91 1.966-23.669 5.851-34.955V55.534a25.288 25.288 0 01-5.422-.698c-.179-.007-2.033-.279-4.438-1.143zM29 107.131a107.709 107.709 0 0115.387-24.657L29 70.27v36.861zm10.808-25.492c.061-.017.105-.029.166-.041.254-.089.535-.004.768.138a1.15 1.15 0 01.354 1.577l-5.527 8.678a1.13 1.13 0 01-1.571.35 1.138 1.138 0 01-.354-1.572l5.527-8.684c.142-.21.352-.357.637-.446zm-9.59 3.055l3.975-6.754c.124-.206.302-.381.544-.532.045-.032.094-.053.142-.074l.043-.02c.175-.074.347-.124.531-.139a.313.313 0 01.13-.026l.108.02c.26.011.502.077.71.2a1.616 1.616 0 01.574 2.214l-3.972 6.752a1.624 1.624 0 01-1.39.794c-.293 0-.574-.079-.822-.224a1.623 1.623 0 01-.573-2.211zm185.521 165.982a25.314 25.314 0 0110.182-3.501v-7.051l-17.361-18.386a109.102 109.102 0 01-13.998 13.476l17.695 18.027a25.856 25.856 0 013.482-2.565zm-71.919 6.968c-5.491.85-11.07 1.278-16.574 1.278-.13 0-.266.017-.401-.011l2.22 13.803h14.979l-.224-15.07zm-82.799 15.07H79.64l9.935-20.602a107.189 107.189 0 01-15.688-7.397l-12.866 27.999zm22.08-9.631a1.625 1.625 0 01-2.084.937l-10.737-4.082a1.602 1.602 0 01-.903-.849 1.58 1.58 0 01-.033-1.233c.097-.264.274-.492.537-.687.052-.04.094-.075.157-.108a1.53 1.53 0 01.746-.24l.006-.004.063-.004c.196 0 .393.031.571.104l10.741 4.085c.401.151.722.45.894.847.178.396.193.832.042 1.234zm-8.723-12.336c.021-.005.039-.012.061-.018.051-.019.114-.046.199-.046.178 0 .348.038.501.116l10.034 4.867c.272.129.478.359.583.644.097.29.082.603-.048.878a1.148 1.148 0 01-1.531.528l-10.037-4.868a1.127 1.127 0 01-.577-.644c-.1-.289-.082-.604.051-.877.115-.234.312-.408.58-.524.069-.027.132-.044.184-.056zm127.548-83.066v16.498c.692.183 1.351.362 2.003.542v-14.135a19.425 19.425 0 01-2.003-2.905zM72.72 223.646a126.298 126.298 0 0014.997 9.493c1.229-3.787 4.745-13.354 12.063-24.896 6.754-10.654 16.821-19.65 24.346-25.489-9.88 2.686-32.749 11.784-51.406 40.892zm83.796-54.155h2.676v-4.867h-2.676v4.867zm0-6.892h2.676v-4.907h-2.676v4.907zm-4.706 0h2.682v-4.907h-2.682v4.907zM28.626 247.12c3.778.4 7.327 1.6 10.554 3.556a25.98 25.98 0 012.728 1.946l17.504-17.825a109.259 109.259 0 01-14.013-13.678l-16.772 18.8v7.201zm12.375-18.859c.184-.219.456-.351.764-.373l.013-.011.078-.006c.275 0 .541.095.752.269l9.431 8.164a1.14 1.14 0 01-.746 2.005c-.272 0-.535-.097-.746-.273l-9.434-8.165a1.143 1.143 0 01-.112-1.61zm-4.679 6.326c.247-.296.589-.475 1.021-.535a.787.787 0 01.109-.025.326.326 0 01.103-.016c.38 0 .749.133 1.039.377l9.735 8.184a1.62 1.62 0 01.199 2.278 1.629 1.629 0 01-1.238.575c-.375 0-.746-.133-1.036-.379l-9.735-8.188a1.613 1.613 0 01-.197-2.271zm-7.696-2.241l16.26-11.834a107.814 107.814 0 01-16.26-26.025v37.859zm82.548 33.297h11.88c.74 0 1.368.505 1.559 1.194l1.271-7.941a108.058 108.058 0 01-17.507-1.66l-.429 15.479h15.722l.728-4.568a1.606 1.606 0 01-1.344.729h-11.88a1.618 1.618 0 01-1.616-1.615c0-.893.725-1.618 1.616-1.618zm.027-5.636h.015l11.877.435a1.143 1.143 0 011.1 1.181 1.138 1.138 0 01-1.139 1.098l-11.922-.433a1.14 1.14 0 01-.795-.366 1.155 1.155 0 01-.305-.814c.025-.652.475-1.072 1.169-1.101zm-3.73-2.936c-5.936-1.105-11.701-2.674-17.153-4.674l-4.755 20.316h16.773l5.135-15.642zm-56.33 15.643h3.341l18.821-28.334a108.897 108.897 0 01-13.317-9.122L45.84 256.554a25.18 25.18 0 014.842 9.842c.467 1.923.622 3.996.459 6.318zm153.872-70.287c2.317-3.378 4.449-7.086 6.353-11.021-10.841-3.63-29.1-8.248-55.427-10.102 13.504 3.05 32.192 9.138 49.074 21.123zm-53.203-32.936h2.682v-4.867h-2.682v4.867zM108.432 45.169a107.883 107.883 0 0117.178-1.637l-2.172-13.52h-15.235l.229 15.157zm117.489 149.216c-4.243 9.657-9.913 18.663-16.86 26.778l16.86 11.626v-38.404zm-10.734 28.108c-.215 0-.423-.06-.61-.178a1.145 1.145 0 01-.351-1.575l5.524-8.681c.146-.211.356-.364.641-.45.063-.018.103-.029.154-.041.296-.086.55-.007.785.145.525.337.683 1.042.348 1.572l-5.528 8.681a1.148 1.148 0 01-.963.527zm9.916-3.137l-3.972 6.752a1.62 1.62 0 01-2.211.575 1.62 1.62 0 01-.571-2.212l3.969-6.752c.121-.207.3-.38.544-.536.055-.032.108-.059.163-.082a1.7 1.7 0 01.544-.148c.036-.015.081-.035.145-.035h.036l.079.027c.254.012.498.08.707.201a1.623 1.623 0 01.567 2.21zM107.567 45.326l-4.978-15.314H87.414l3.547 19.78a107.348 107.348 0 0116.606-4.466zm-3.944-2.284l-9.506 1.753a1.126 1.126 0 01-1.323-.912 1.14 1.14 0 01.909-1.329l9.506-1.756a.922.922 0 01.564.086c.033.011.058.026.085.04.015.006.03.01.055.014.042.015.108.031.175.082.244.178.398.419.45.693a1.147 1.147 0 01-.915 1.329zm-14.17-5.222a1.617 1.617 0 011.302-1.877l11.479-2.074c.097-.018.196-.027.287-.027h.048l.085.04c.32.014.613.121.857.314a.315.315 0 01.069.066c.3.286.475.58.532.912a1.614 1.614 0 01-1.302 1.873l-11.479 2.075a1.616 1.616 0 01-1.878-1.302z"/></svg>