<svg xmlns="http://www.w3.org/2000/svg" width="186" height="35.303"><path fill="#FFF" d="M157.139 22.524l2.094-12.784 2.096 12.784h-4.19zm-2.14 12.779l.026-.179.02.179 1.1-6.711h6.166l.215 1.258.895 5.453.018-.145.022.145h8.185L164.154.826h-9.744l-7.541 34.477h8.13zm20.339-29.432c.373 0 .801.214.801.615V9.19c0 .381-.42.587-.801.587-.4 0-.803-.206-.803-.587V6.487c0-.391.41-.616.803-.616zm3.842 2.462l1.187-1.688-.019 1.688h-1.168zm-3.842 2.86c.984 0 2.068-.476 2.328-1.526h2.561V11.1h1.592V9.666h.617V8.314h-.617V4.501h-1.369l-2.725 3.708v-1.77c0-1.406-1.26-2.03-2.387-2.03-1.117 0-2.387.625-2.387 2.03V9.17c0 1.4 1.27 2.023 2.387 2.023zM177.691 0a7.8 7.8 0 110 15.602 7.8 7.8 0 010-15.602zm-71.599 21.468h2.667c1.886.14 2.528 1.519 2.755 3.633.166 1.513.119 6.42.129 10.201h8.248c-.188-4.407-.261-10.835-.422-12.777-.136-2.392-1.748-3.954-4.001-4.458l.003-.091c3.399-1.561 4.273-4.184 4.273-7.862.002-6.848-3.313-9.515-9.93-9.515L98.002.598v34.478h8.09V21.468zm0-14.663c3.955-.09 5.653.094 5.653 4.182 0 2.118-.552 4.278-2.897 4.278h-2.756v-8.46zm30.912 17.728l.001-.997h-2.825v-6.205h10.987c0 3.163-.006 5.588-.006 8.75 0 7.089-4.124 10.057-11.08 10.057-7.458 0-10.937-3.523-10.937-11.078V10.987C123.146 3.495 126.596 0 133.991 0c6.503 0 10.512 2.617 10.948 8.806.018.251.031 1.616.037 1.881l-7.951 2.619V9.544a2.926 2.926 0 00-2.916-2.917 2.926 2.926 0 00-2.918 2.917v17.05a2.926 2.926 0 002.918 2.917 2.924 2.924 0 002.916-2.917v-2.061h-.021zM45.642 10.689c-.004-.173-.011-1.449-.02-1.614C45.279 2.692 41.204 0 34.611 0c-7.396 0-10.847 3.495-10.847 10.986l.002 14.156c0 7.033 2.894 10.996 10.34 10.996 8.275 0 11.675-4.145 11.675-10.073l.001-4.229h-8.085v4.758a2.925 2.925 0 01-2.916 2.917h-.001a2.913 2.913 0 01-2.246-1.061c-.509-.53-.726-1.326-.726-2.34.018-5.521.056-11.045.056-16.565a2.925 2.925 0 012.916-2.917h.001a2.925 2.925 0 012.916 2.917v3.762l7.945-2.618zm48.633 24.614v-6.894H83.293V20.96h10.114v-6.893H83.293V7.724h10.436V.826H75.204v34.477h19.071zm-36.774 0V20.96h5.608v14.342h8.095V.826h-8.095v13.241h-5.608V.826h-8.086v34.477h8.086zM0 7.724h6.341v27.579h8.093V7.724h6.527V.826H0v6.898z"/></svg>