<svg xmlns="http://www.w3.org/2000/svg" width="100.02" height="32.02"><g fill="#020202"><path d="M0 27.114h.459v1.105a.784.784 0 01.475-.156c.535 0 .854.382.854.91 0 .589-.396.967-1.025.967A1.57 1.57 0 010 29.741v-2.627zm.459 1.549v.761c.1.063.199.091.327.091.287 0 .511-.187.511-.509 0-.343-.211-.513-.471-.513a.502.502 0 00-.367.17zm2.681 1.233c-.263.64-.431.795-.694.795a.63.63 0 01-.387-.139l.147-.347a.376.376 0 00.188.064c.116 0 .2-.092.275-.279l.04-.095-.83-1.788h.551l.419.978c.036.087.06.171.088.259.015-.084.032-.172.063-.263l.323-.973h.523l-.706 1.788zm1.959-2.782h.051c.167 0 .566-.013.77-.013 1.117 0 1.569.64 1.569 1.376 0 .783-.535 1.428-1.601 1.428-.168 0-.479-.009-.734-.009h-.055v-2.782zm.49.457v1.868c.136.008.247.008.315.008.674 0 1.065-.382 1.065-.97 0-.561-.392-.918-1.058-.918-.114 0-.21.003-.322.012zm3.71-.501c.83 0 1.457.567 1.457 1.435 0 .835-.627 1.436-1.457 1.436s-1.453-.568-1.453-1.436c0-.807.594-1.435 1.453-1.435zm0 2.412c.587 0 .938-.429.938-.978 0-.576-.412-.979-.938-.979-.535 0-.934.402-.934.979 0 .557.411.978.934.978zm2.022-2.368h.494l.954 1.3.91-1.3h.463v2.782h-.487v-2.011l-.882 1.235h-.072l-.89-1.225v2h-.49v-2.781zm4.415-.008h.432l1.182 2.79h-.523l-.291-.712h-1.193l-.291.712h-.495l1.179-2.79zm-.207 1.621h.818l-.407-.99-.411.99zm2.297-1.613h.491v2.782h-.491v-2.782zm3.321 2.782l-1.537-1.929v1.929h-.459v-2.782h.392l1.536 1.936v-1.936h.458v2.782h-.39zm2.009-2.782h.494l.954 1.3.91-1.3h.463v2.782h-.487v-2.011l-.882 1.235h-.071l-.891-1.225v2h-.49v-2.781zm3.594 0h1.616v.457H27.24v.691h1.006v.457H27.24v.72h1.166v.457H26.75v-2.782zm4.289 2.782l-1.537-1.929v1.929h-.458v-2.782h.392l1.536 1.936v-1.936h.458v2.782h-.391zm1.986-2.79h.431l1.182 2.79h-.523l-.291-.712H32.63l-.291.712h-.495l1.181-2.79zm-.208 1.621h.818l-.407-.99-.411.99zm2.238-1.613h.052c.168 0 .567-.013.771-.013 1.117 0 1.568.64 1.568 1.376 0 .783-.534 1.428-1.6 1.428-.169 0-.479-.009-.735-.009h-.056v-2.782zm.491.457v1.868c.136.008.247.008.315.008.674 0 1.065-.382 1.065-.97 0-.561-.392-.918-1.058-.918-.114 0-.21.003-.322.012zm3.191-.465h.432l1.181 2.79h-.522l-.292-.712h-1.193l-.291.712h-.495l1.18-2.79zm-.208 1.621h.818l-.406-.99-.412.99z"/><path fill-rule="evenodd" clip-rule="evenodd" d="M11.619 2.138c.072-.229.072-.229.576.136l-.055-.3c-.002-.008.009-.02.029-.058l.285.092c.292-.13.329-.141.427.196.19.661.385 1.328.489 2.005.394 2.553.759 5.111 1.118 7.669.134.949.229 1.904.321 2.858.024.257.104.375.373.388.498.022 1.007.023 1.451.416-.111.279.021.654-.389.902-.232.14-.319.499-.638.599-.021.007-.003.138-.003.211-.52.112-.526.113-.479.643.141 1.598.314 3.192.419 4.791.052.8-.02 1.607-.036 2.492-.234-.195-.386-.219-.47.115l-.145-.368-.066.002-.048.904-.056.005-.179-.46a60.03 60.03 0 01-.286.2c-.215-.045-.373-.066-.521-.114-.146-.048-.284-.125-.506-.228l-.363.85c-.073-.176-.149-.289-.166-.41a659.2 659.2 0 01-.733-5.529c-.111-.87-.184-1.745-.294-2.615-.011-.087-.167-.226-.253-.224-1.375.025-2.749.063-4.122.119-.107.005-.262.144-.306.254a392.325 392.325 0 00-1.678 4.261c-.286.738-.555 1.484-.847 2.221a.365.365 0 01-.253.184c-.537.057-1.078.076-1.614.138-.466.054-.925-.083-1.21-.366-.431-.428-.948-.826-1-1.551a7.81 7.81 0 01.331-2.875c.321-1.047.695-2.078 1.045-3.116.021-.066.06-.149.038-.203-.172-.439.111-.711.322-1.04.217-.337.335-.737.494-1.111.922-2.165 1.813-4.343 2.773-6.491A70.261 70.261 0 017.49 3.472c.412-.775.97-1.473 1.785-1.886.254-.13.55-.195.835-.244.267-.045.552-.06.618.328.012.066.129.127.209.166.217.103.438.194.682.302zM7.966 14.883c.142.014.221.027.299.027.821.001 1.643-.004 2.464.001.73.004.729.008.659-.727l-.579-6.066c-.009-.096-.015-.192-.03-.39l-2.813 7.155zm37.081.796c.604-.351 1.126-.659 1.653-.957a66.305 66.305 0 011.754-.961c.215-.113.33-.242.351-.502.111-1.364.24-2.727.371-4.089.075-.79.165-1.579.249-2.38-.472-.069-.942-.093-1.385-.217a2.353 2.353 0 01-.869-.481c-.271-.233-.176-.471.18-.507.619-.063 1.24-.124 1.86-.132.33-.005.47-.132.516-.429.144-.948.281-1.896.44-2.841.075-.448.16-.899.297-1.331.167-.528.603-.751 1.124-.82.652-.087 1.289.01 1.901.229.413.147.496.345.475.781-.016.314.04.632.018.945-.07 1.002-.157 2.004-.249 3.005-.047.512-.058.497.441.527.725.045 1.458.058 2.139.363.115.051.226.114.392.199-.306.246-.499.53-.926.532-.657.003-1.313.086-1.97.111-.263.01-.312.161-.333.358-.05.454-.089.909-.142 1.362-.215 1.847-.418 3.695-.655 5.54-.242 1.879-.521 3.754-.78 5.63-.159 1.146-.31 2.294-.469 3.441-.022.157-.08.312-.132.505l-.211-.121-.128.313-.479-.699.032.455-.446.114-.246-.419-.171.217-.089-.49-.056-.002a71.21 71.21 0 01-.121.437 76.09 76.09 0 01-.247-.649l-.19.166-.113-.426a38.7 38.7 0 00-.16.327c-.016-.005-.046-.008-.05-.019-.042-.132-.098-.262-.116-.396-.255-1.894-.137-3.784.038-5.675.025-.277.044-.555.072-.911-.181.102-.298.164-.412.231-.946.561-1.896 1.115-2.83 1.695-.142.089-.256.294-.293.463-.388 1.782-1.214 3.289-2.807 4.264-.732.448-1.604.467-2.418.31-.901-.176-1.563-1.158-.917-2.322.695-1.254 1.755-2.15 2.881-2.983.259-.191.397-.387.401-.718.012-.876.056-1.752.082-2.628a1.023 1.023 0 00-.112-.507c-.115.149-.234.295-.346.446-1.14 1.556-2.252 3.132-3.426 4.661-.725.942-1.602 1.734-2.737 2.197-1.459.595-3.592-.359-3.945-2.032-.216-1.025-.147-2.025.056-3.026.231-1.145.54-2.271 1.108-3.305.128-.234.284-.455.446-.668.248-.325.582-.437.993-.396.444.044.886.06 1.274.327.481.33.619.769.465 1.333a86.579 86.579 0 00-.762 3.02 59.041 59.041 0 00-.49 2.402 3.26 3.26 0 00-.044.698c.014.48.289.619.695.345.242-.163.479-.342.683-.55 1.541-1.583 2.855-3.34 4.041-5.199a178.971 178.971 0 012.212-3.367c.289-.43.643-.793 1.139-1.014.584-.258 1.534.389 1.649.821.04.149.002.36-.08.494-.146.236-.154.466-.146.73.037 1.228.049 2.458.069 3.686.003.135.001.271.001.489zm-3.043 4.167c-.729.376-1.212.979-1.593 1.668-.103.186-.02.332.213.308a.935.935 0 00.392-.124c.662-.431.838-1.131.988-1.852zm23.607 6.662c-.27-.053-.196-.264-.17-.42.15-.899.318-1.797.475-2.694.23-1.323.457-2.646.684-3.97.026-.158.042-.318.074-.565-.158.166-.264.271-.36.381-.587.671-1.2 1.307-2.002 1.742-.47.255-.925.302-1.41.098-.781-.328-1.438-.8-1.755-1.618-.096-.242-.107-.517-.136-.659-.28.241-.627.53-.96.833-.683.619-1.402 1.16-2.329 1.383-1.127.27-3.097-.46-3.477-2.102-.263-1.139-.138-2.247.107-3.366.23-1.053.53-2.078 1.044-3.032.126-.234.282-.456.446-.667.251-.321.586-.434.996-.389.432.047.861.057 1.243.313.5.335.643.769.484 1.353a90.039 90.039 0 00-.758 3.02 53.07 53.07 0 00-.485 2.367 3.408 3.408 0 00-.046.768c.018.423.302.588.639.339.412-.304.828-.63 1.154-1.019a93.594 93.594 0 002.76-3.455c.569-.75 1.027-1.584 1.608-2.326.896-1.143 2.032-2.047 3.246-2.829 1.396-.899 3.435.007 3.784 1.623.064.298-.114.468-.329.598-.389.237-.796.445-1.187.68-.951.571-1.641 1.426-2.355 2.245-.894 1.024-1.699 2.115-2.206 3.392a3.992 3.992 0 00-.254.952c.093-.083.195-.157.277-.25 1.19-1.341 2.379-2.681 3.564-4.025.281-.318.412-.766.858-.941.356-.14.708-.25 1.089-.116.277.099.492.224.512.581.016.291.18.574.192.863.017.391-.024.788-.082 1.176-.264 1.755-.526 3.511-.819 5.263-.28 1.67-.63 3.33-.887 5.004-.18 1.177-.244 2.371-.385 3.553-.024.207-.169.398-.254.588-.398.015-.794-.051-1.128.279-.225.22-.515.377-.787.543-.06.037-.181.018-.254-.018a1.165 1.165 0 01-.678-.887c-.104-.666-.14-1.344-.21-2.076.129.059.189.085.248.111.129-.208-.124-.565.331-.636l-.226.962c.142-.07.221-.084.228-.116.113-.483.249-.966.03-1.46-.027-.063.023-.163.048-.242.021-.072.057-.14.087-.209l-.089-.048-.491.718-.083-.029.147-1.348.168.153.063-.379.154.882c.147-.209.234-.33.321-.452-.065-.192-.058-.384-.067-.575-.008-.178-.034-.354-.053-.53l-.132.017v.559l-.196-.385a31.75 31.75 0 01-.021.494zm.812-.148a1.654 1.654 0 01-.101.025c-.012.219-.014.438-.037.656-.047.441-.103.883-.158 1.323-.018.135-.021.276-.068.401-.182.479-.332.945.191 1.367.024-.102.055-.186.064-.271.053-.486.087-.959.027-1.463-.071-.604.109-1.234.17-1.854.008-.057-.057-.123-.088-.184zm-.74 3.304l-.084.011v1.231l.084-.003v-1.239zm31.919-13.805l-.074-.31-1.682 2.259.116.194c-.169.188-.321.351-.466.52-1.08 1.27-2.293 2.381-3.834 3.068-.447.199-.923.347-1.455.232-.33-.071-.693.027-1.041.02-.201-.006-.401-.07-.616-.111-.21.35-.507.056-.737.004-.621-.141-.947-.675-1.247-1.162-.276-.449-.431-.973-.641-1.464-.025-.06-.062-.116-.243-.297-.037.102-.047.228-.115.302-.67.727-1.382 1.432-2.338 1.75-1.25.415-2.471.313-3.485-.615-.618-.564-.777-1.364-.861-2.164-.03-.287-.005-.579-.005-.869l-.091-.03-.203.287c-.657.905-1.287 1.833-1.985 2.707-.269.335-.665.593-1.046.812-1.025.591-1.743.488-2.624-.293-.655-.582-1.004-1.297-1.067-2.172-.081-1.118.042-2.22.257-3.31.224-1.134.531-2.247 1.104-3.269.505-.899 1.255-1.395 2.299-1.423a.563.563 0 01.268.05c.297.163.585.342.878.51.204.118.322.281.261.521-.116.45-.257.893-.365 1.344-.397 1.655-.79 3.31-1.173 4.968-.044.189-.035.4-.009.595.016.109.116.208.18.312.092-.061.214-.098.271-.182.64-.919 1.288-1.833 1.897-2.773.801-1.233 1.556-2.496 2.356-3.729.605-.934 1.294-1.113 2.558-.781.442.117.552.422.463.876-.276 1.421-.582 2.839-.791 4.271-.142.966-.278 1.949-.065 2.933.101.463.31.584.664.254.666-.621 1.278-1.298 1.901-1.961.2-.213.348-.475.551-.683.674-.696.851-1.65 1.304-2.46.776-1.385 1.779-2.551 3.239-3.255.344-.166.723-.335 1.093-.354.538-.027 1.072-.115 1.603.315.358.292.516.518.485.933a.183.183 0 00.042.126c.656.704.438 1.494.146 2.231-.473 1.193-1.439 1.822-2.686 1.979-.6.077-1.219.024-1.827-.008-.253-.013-.351.048-.411.293-.132.526-.151 1.043.072 1.544.367.82 1.318 1.217 2.383 1.076 1.18-.156 2.127-.757 2.909-1.575 1.058-1.108 2.027-2.299 3.03-3.458.298-.345.576-.708.871-1.057.104-.121.23-.224.343-.33.263.195.304.8.117 1.063-.193.275-.366.564-.548.847l.109.073.722-1.061c-.076.716-.33 1.313-.761 1.887zm-8.611-.845c1.128-.686 2.375-1.24 2.935-2.589-1.063-.313-2.292.847-2.935 2.589zm7.515 1.071c-.219.385-.41.726-.604 1.066l.084.066c.104-.108.214-.21.309-.325.08-.098.119-.257.217-.308.331-.167.16-.304-.006-.499zm-5.093-4.782c-.295-.169-.604-.085-.796.173l.796-.173zm5.985 3.516a5.11 5.11 0 00-.096-.061l-.423.705.136.076.383-.72zm-68.603 8.752l-.195-.127-.128.311-.486-.703.052.475c-.126.021-.27.048-.464.083l-.255-.419-.156.279c-.034-.209-.063-.374-.09-.537l-.055-.01-.131.453-.275-.752-.08.28c-.026-.017-.053-.032-.08-.048l-.113-.386-.21.435c-.059-.316-.111-.537-.14-.759-.231-1.858-.085-3.713.076-5.568.143-1.631.237-3.266.383-4.897.14-1.572.317-3.141.478-4.712.006-.056.008-.112.012-.177-.476-.07-.946-.095-1.39-.219a2.327 2.327 0 01-.868-.481c-.27-.233-.174-.471.182-.507a21.448 21.448 0 011.859-.132c.331-.005.469-.133.514-.429.146-.947.284-1.895.442-2.84.075-.448.16-.899.296-1.331.16-.511.579-.743 1.089-.815a3.95 3.95 0 011.968.236c.333.125.508.358.453.767-.05.377.034.772.007 1.155-.068.955-.163 1.909-.253 2.863-.041.445-.044.434.406.461.736.043 1.48.056 2.174.361.074.033.148.068.22.108.047.027.088.066.148.113-.295.28-.548.526-.998.519-.619-.01-1.24.083-1.862.104-.287.01-.318.188-.342.391-.05.441-.089.884-.139 1.326-.163 1.44-.313 2.882-.498 4.32-.251 1.947-.528 3.892-.795 5.838-.204 1.493-.405 2.987-.614 4.48-.023.156-.088.307-.142.491z"/><path fill-rule="evenodd" clip-rule="evenodd" d="M26.368 10.099c-.77.65-1.526 1.149-2.098 1.807a24.155 24.155 0 00-2.216 3.009c-.807 1.288-1.108 2.764-1.295 4.256-.111.894-.219 1.788-.332 2.681-.049.386-.655.682-1.01.473-.391.253-.801.502-1.191.777-.225.159-.428.098-.563-.06-.244-.287-.492-.571-.456-1.017.148-1.842.254-3.688.4-5.53.129-1.622.388-3.227.881-4.78.192-.607.424-1.217.743-1.764.453-.775 1.156-1.246 2.098-1.264.61-.012.985.297.946.909-.046.694-.206 1.381-.332 2.068-.072.395-.177.783-.267 1.175l.194.135c.038-.096.054-.213.118-.286.811-.916 1.666-1.786 2.775-2.344.327-.165.705-.239 1.068-.32.143-.029.305.039.537.075zm73.652 9.626c-.033.199-.034.455-.118.68-.388 1.04-1.767 1.333-2.635.56-.229-.204-.489-.433-.592-.705-.234-.619.332-1.577.986-1.696.516-.094 1.046-.121 1.57-.143.352-.015.64.299.725.736.034.172.04.347.064.568zM60.209 8.31c-.02.859-.55 1.534-1.348 1.7-.404.084-.765-.025-1.021-.317a8.325 8.325 0 01-.854-1.181c-.197-.328-.042-.639.22-.875a3.203 3.203 0 012.001-.826.827.827 0 01.854.64c.07.281.1.572.148.859zm-22.492-.015c-.013.876-.55 1.558-1.366 1.718-.39.077-.744-.028-.989-.31a8.449 8.449 0 01-.873-1.21c-.188-.313-.033-.618.217-.846a3.173 3.173 0 012.03-.834c.404-.021.743.255.84.658.065.271.095.549.141.824z"/></g></svg>