<svg xmlns="http://www.w3.org/2000/svg" xmlns:xlink="http://www.w3.org/1999/xlink" width="137.938" height="42.239"><defs><path id="a" d="M19.341 19.278v-5.141a.458.458 0 00-.429-.456c-.688-.042-.881-.318-1.188-1.238-.698-2.158-2.691-9.104-2.748-9.638 0-.331 0-.467.614-.467a.457.457 0 00.457-.456V.666A.457.457 0 0015.59.21H8.435a.456.456 0 00-.456.456v1.217c0 .252.204.456.456.456.677 0 .677.146.678.447-.057.559-2.188 7.299-3.018 9.624-.321.901-.56 1.229-1.255 1.271a.457.457 0 00-.429.456v5.141c0 .252.204.456.457.456h1.217c.228 0 .42-.168.452-.395.303-2.187.567-3.429 2.466-3.529h5.724c1.923.101 2.187 1.343 2.489 3.53a.457.457 0 00.452.395h1.217a.457.457 0 00.456-.457M8.791.754a.068.068 0 00-.069.068v1.215a.071.071 0 01-.021.05.067.067 0 01-.048.02h-.005a1.969 1.969 0 01-.08-.008 1.048 1.048 0 00-.134-.01.206.206 0 01-.206-.206V.666c0-.113.092-.206.206-.206h7.156c.114 0 .206.092.206.206v.02a.068.068 0 01-.068.068H8.791zM6.818 12.697c-.354.991-.684 1.472-1.598 1.529a.067.067 0 00-.064.068v5.121c0 .038-.03.068-.069.068h-.219a.206.206 0 01-.207-.205v-5.141c0-.108.085-.199.194-.205.842-.052 1.137-.485 1.477-1.438.809-2.27 2.968-9.068 3.032-9.715-.002-.246-.056-.407-.179-.514a.07.07 0 01-.016-.082.068.068 0 01.074-.037c.429.082.613.32.614.797-.069.7-2.311 7.708-3.039 9.754zm2.388.055c0-.596.197-1.657 2.561-8.851 2.025 6.933 2.422 8.418 2.422 8.956 0 .277 0 .404-.97.404h-3c-1.013 0-1.013-.088-1.013-.509zm4.369 1.054h-3c-.613 0-.962-.034-1.175-.223a.069.069 0 01.058-.119c.172.034.399.048.76.048h3c.831 0 1.221-.064 1.221-.655 0-.55-.302-1.736-2.432-9.026l-.096-.331a.064.064 0 01.001-.041l.164-.5c.01-.028.036-.055.067-.047a.07.07 0 01.064.049l.288.989c2.135 7.306 2.439 8.499 2.439 9.064 0 .737-.538.792-1.359.792zm4.36 5.654a.068.068 0 01-.052.023h-.216a.207.207 0 01-.203-.177c-.196-1.419-.381-2.759-1.385-3.374a.069.069 0 01-.025-.089.07.07 0 01.086-.033c1.39.557 1.604 2.101 1.811 3.595a.073.073 0 01-.016.055zm1.129-5.284a.07.07 0 01-.047.019l-.011-.001a1.375 1.375 0 01-.535-.2.066.066 0 01-.024-.084.07.07 0 01.081-.038c.126.034.245.054.369.062.1.006.179.084.189.188a.071.071 0 01-.022.054zm75.425-.039a.455.455 0 00-.417-.454c-.478-.041-.801-.221-1.052-1.025-.221-.706-.648-2.008-1.124-3.452-.818-2.485-2.054-6.24-2.106-6.609 0-.192 0-.257.51-.257a.456.456 0 00.456-.456V.666A.456.456 0 0090.3.21h-6.694a.456.456 0 00-.457.456v1.217c0 .246.195.447.438.456.696.026.696.104.696.247-.052.662-2.505 7.612-3.412 10.024-.331.87-.607 1.033-1.1 1.073a.455.455 0 00-.42.455v1.217c0 .252.203.457.456.457h5.099a.458.458 0 00.457-.457v-1.217a.456.456 0 00-.442-.456c-1.194-.038-1.194-.456-1.194-.614 0-.404.246-1.158.482-1.888l.043-.131h4.752c.285.871.562 1.816.566 2.02 0 .343 0 .614-.845.614a.455.455 0 00-.456.457v1.217c0 .252.203.457.456.457h5.308a.455.455 0 00.456-.457v-1.22zm-10.365-.333c.248.078.498.119.789.128a.205.205 0 01.196.196.07.07 0 01-.069.073h-.006c-.44-.037-.758-.127-.97-.274a.07.07 0 01-.023-.087.07.07 0 01.083-.036zM83.961.754a.068.068 0 00-.069.068v1.21a.068.068 0 01-.067.069h-.006l-.05-.002a3.304 3.304 0 00-.172-.01.206.206 0 01-.199-.206V.666c0-.113.093-.206.207-.206h6.694c.113 0 .204.092.204.206v.02a.067.067 0 01-.067.068h-6.475zm2.791 3.096l1.538 4.836h-3.225l1.687-4.836zm-5.163 9.054c-.355.932-.717 1.265-1.432 1.322a.066.066 0 00-.063.068v1.197a.068.068 0 01-.068.068h-.219a.206.206 0 01-.207-.205v-1.217c0-.109.082-.196.19-.205.658-.052.978-.353 1.313-1.235.831-2.206 3.37-9.362 3.429-10.117a.375.375 0 00-.137-.304.07.07 0 01-.016-.082.067.067 0 01.073-.038c.245.044.572.153.572.585-.059.788-2.577 7.882-3.435 10.163zm7.55-3.7a.073.073 0 01-.056.028h-4.111a.074.074 0 01-.056-.029.074.074 0 01-.009-.063l.056-.156a.068.068 0 01.063-.046h3.605l-1.734-5.459a.066.066 0 010-.044l.161-.46a.069.069 0 01.064-.046h.001c.028 0 .056.02.064.048l1.959 6.165a.063.063 0 01-.007.062zm-.057 5.022a.068.068 0 00-.069.068v1.197c0 .038-.03.068-.067.068h-.22a.207.207 0 01-.207-.205v-1.217c0-.113.094-.206.207-.206.916 0 1.095-.32 1.095-.872-.006-.314-.444-1.68-.578-2.09l-.02-.063a.072.072 0 01.009-.062.07.07 0 01.056-.029h.306a.07.07 0 01.065.048l.07.22c.175.532.578 1.806.585 2.132-.001.607-.21 1.011-1.232 1.011zm5.126-.076a.07.07 0 01-.05.022l-.016-.002a1.33 1.33 0 01-.427-.177.066.066 0 01-.024-.084c.013-.032.044-.051.08-.039l.061.017c.073.02.141.04.219.046.08.006.146.065.172.152a.07.07 0 01-.015.065zM75.826 7.357c1.185-.847 1.826-1.976 1.826-3.25 0-1.519-.696-4.065-5.366-4.065-.541 0-1.066.034-1.648.071-.705.045-1.505.097-2.526.097h-2.204a.456.456 0 00-.456.456v1.217c0 .252.204.456.456.456 1.118 0 1.118 0 1.118.74v9.757c0 .732 0 .845-1.118.845a.456.456 0 00-.456.457v1.217c0 .252.204.457.456.457h2.854c.46 0 1.086.025 1.721.051.67.026 1.352.054 1.868.054 4.255 0 5.765-2.597 5.765-4.821-.002-1.319-.724-2.921-2.29-3.739zm-8.057 5.636c0 1.014-.269 1.233-1.506 1.233a.068.068 0 00-.069.068v1.197a.067.067 0 01-.068.068h-.219a.205.205 0 01-.205-.205v-1.217c0-.113.092-.206.205-.206 1.176 0 1.367-.153 1.367-1.096V3.079c0-.442-.057-.675-.2-.805a.07.07 0 01-.014-.082.065.065 0 01.073-.036c.48.089.636.352.636 1.08v9.757zm2.641-6.112h1.08c2.005 0 2.919-1.231 2.919-2.375 0-1.065-.416-1.844-1.203-2.255-.031-.017-.045-.054-.031-.087a.069.069 0 01.085-.039c1.06.354 1.644 1.255 1.644 2.537 0 1.21-.957 2.513-3.058 2.513H70.41a.068.068 0 01-.069-.068V6.95a.068.068 0 01.069-.069zm-.038-.251V2.427c.399-.142 1.035-.235 1.474-.235 1.471 0 2.313.844 2.313 2.314 0 1.022-.836 2.124-2.669 2.124h-1.118zm0 6.248V8.865h1.684c1.714 0 2.481 1.183 2.481 2.355 0 1.226-.819 2.46-2.649 2.46-1.516.001-1.516-.502-1.516-.802zm1.872 1.348c-.677 0-1.154-.097-1.459-.294a.068.068 0 01-.024-.086c.014-.032.049-.045.082-.037.273.083.615.123 1.045.123 1.992 0 2.899-1.405 2.899-2.711 0-.967-.507-1.837-1.324-2.271a.069.069 0 01.056-.125c1.07.378 1.762 1.381 1.762 2.553-.001 1.372-.95 2.848-3.037 2.848zm3.225-13.189h-.004a.057.057 0 01-.024-.005c-.754-.295-1.695-.445-2.799-.445-.536 0-1.064.034-1.623.069-.707.046-1.508.098-2.552.098h-2.204a.068.068 0 00-.069.068v1.199c0 .019-.006.036-.02.049s-.03.02-.049.02h-.056l-.162-.001a.205.205 0 01-.205-.206V.666c0-.113.092-.206.205-.206h2.204c1.04 0 1.838-.052 2.543-.097.562-.037 1.092-.07 1.632-.07 1.303 0 2.38.205 3.199.609.03.008.052.034.052.067a.069.069 0 01-.068.068zM20.484 15.454a.46.46 0 00.348.346c.023.004.54.115 1.335.115 2.415 0 3.145-2.151 3.733-3.878.568-1.673.991-2.689 2.059-2.689h1.515v3.488c0 .683 0 .845-1.117.845a.457.457 0 00-.456.457v1.217c0 .252.204.457.456.457h5.583a.456.456 0 00.455-.457v-1.217a.456.456 0 00-.455-.457c-1.118 0-1.118-.162-1.118-.845V2.974c0-.423 0-.635 1.118-.635a.456.456 0 00.455-.456V.666A.456.456 0 0033.94.21h-2.204c-1.021 0-1.734-.052-2.364-.097-.524-.037-.995-.071-1.538-.071-5.034 0-5.786 2.915-5.786 4.652 0 1.307.68 2.876 2.151 3.703-.688.515-.963 1.293-1.268 2.156-.058.164-.118.333-.184.509-.119.32-.216.61-.303.875-.44 1.32-.559 1.674-1.813 1.745a.46.46 0 00-.42.556l.273 1.216zm12.667-1.59c.197.046.447.068.788.068.114 0 .206.092.206.206 0 .019-.008.043-.021.056s-.03.026-.048.026h-.001c-.494-.016-.797-.089-.981-.236a.068.068 0 01-.019-.083.063.063 0 01.076-.037zM25.604 4.59c0-1.462.936-2.335 2.502-2.335.542 0 1.056.104 1.368.182v4.655H28.21c-1.791 0-2.606-1.297-2.606-2.502zm4.615 8.403c0 .94-.208 1.233-1.506 1.233a.068.068 0 00-.069.068v1.197c0 .038-.03.068-.069.068h-.219a.206.206 0 01-.206-.205v-1.217c0-.113.092-.206.206-.206 1.207 0 1.368-.22 1.368-1.096v-3.65c0-.037.031-.068.069-.068h.357c.038 0 .069.031.069.068v3.808zm0-5.425a.07.07 0 01-.069.069h-1.583a3.238 3.238 0 01-1.522-.362.07.07 0 01-.031-.088.07.07 0 01.086-.037c.363.13.727.193 1.11.193h1.514V2.258a.069.069 0 01.085-.067l.357.087a.068.068 0 01.053.066v5.224zm-9.725 6.446a.198.198 0 01.151-.081c1.425-.081 1.591-.581 2.037-1.917.089-.268.185-.554.3-.864.057-.154.11-.304.161-.448l.024-.067c.296-.841.552-1.567 1.182-2.038l.308-.231-.335-.189c-1.494-.84-2.024-2.401-2.024-3.484 0-2.008.96-4.401 5.536-4.401.541 0 1.017.034 1.52.07.63.045 1.345.097 2.382.097h2.204c.114 0 .206.092.206.206v.02a.068.068 0 01-.068.068h-1.984a29.97 29.97 0 01-2.393-.098c-.5-.035-.973-.069-1.51-.069-4.461 0-5.398 2.319-5.398 4.265 0 1.045.512 2.553 1.954 3.364l.427.24a.07.07 0 01.035.055.072.072 0 01-.028.06l-.392.293c-.595.446-.845 1.154-1.135 1.975l-.023.065c-.052.146-.105.296-.162.451-.115.307-.207.582-.299.86-.441 1.322-.642 1.924-2.158 2.011a.065.065 0 00-.051.027c-.013.016-.017.036-.013.056l.266 1.185c.005.01.009.021.009.035 0 .038-.03.069-.068.069h-.004l-.009-.001a5.053 5.053 0 01-.251-.04.208.208 0 01-.159-.156l-.273-1.217a.196.196 0 01.035-.171zm15.423 5.72h1.218c.228 0 .42-.168.452-.395.303-2.187.567-3.429 2.465-3.529h5.726c1.922.101 2.185 1.343 2.488 3.53a.457.457 0 00.452.395h1.217a.457.457 0 00.457-.456v-5.141a.458.458 0 00-.429-.456c-.688-.042-.881-.318-1.189-1.238-.698-2.158-2.691-9.104-2.748-9.638 0-.331 0-.467.614-.467a.457.457 0 00.457-.456V.666A.456.456 0 0046.64.21h-7.156a.456.456 0 00-.456.456v1.217c0 .252.204.456.456.456.678 0 .678.146.678.447-.057.559-2.188 7.299-3.017 9.624-.322.901-.561 1.229-1.256 1.271a.457.457 0 00-.428.456v5.141c0 .252.205.456.456.456zm13.66-5.863c.127.034.245.054.369.062.1.006.179.084.189.188a.072.072 0 01-.022.057.068.068 0 01-.046.019l-.012-.001a1.376 1.376 0 01-.534-.2.067.067 0 01-.025-.084c.015-.034.049-.051.081-.041zm-2.387 1.94c1.39.557 1.604 2.101 1.811 3.595a.067.067 0 01-.016.054.071.071 0 01-.052.023h-.215a.206.206 0 01-.203-.177c-.196-1.419-.381-2.759-1.385-3.374a.069.069 0 01-.026-.089.068.068 0 01.086-.032zm-6.935-3.059c0-.596.198-1.657 2.561-8.851 2.026 6.933 2.424 8.418 2.424 8.956 0 .277 0 .404-.971.404h-3c-1.014 0-1.014-.088-1.014-.509zm4.37 1.054h-3c-.612 0-.962-.034-1.175-.223a.069.069 0 01.058-.119c.172.034.399.048.76.048h3c.83 0 1.221-.064 1.221-.655 0-.55-.303-1.736-2.432-9.026l-.096-.331a.072.072 0 010-.041l.165-.5c.009-.028.031-.055.066-.047.03.001.056.021.064.049l.289.989c2.134 7.306 2.438 8.499 2.438 9.064 0 .737-.537.792-1.358.792zM39.84.754a.068.068 0 00-.068.068v1.215a.068.068 0 01-.022.05.068.068 0 01-.047.019h-.005l-.081-.008c-.041-.005-.081-.01-.134-.01a.206.206 0 01-.206-.206V.666c0-.113.092-.206.206-.206h7.156c.114 0 .206.092.206.206v.02a.068.068 0 01-.068.068H39.84zm-4.129 13.383c0-.108.085-.199.194-.205.842-.052 1.136-.485 1.477-1.438.808-2.27 2.967-9.068 3.031-9.715-.001-.247-.056-.407-.178-.514a.073.073 0 01-.018-.082.07.07 0 01.075-.037c.429.082.613.32.614.797-.069.7-2.311 7.708-3.039 9.754-.355.991-.684 1.472-1.599 1.529a.067.067 0 00-.064.068v5.121c0 .038-.03.068-.068.068h-.219a.206.206 0 01-.206-.205v-5.141zm21.435 1.842c4.184 0 6.583-2.912 6.583-7.99C63.729 2.837 61.391 0 57.146 0c-4.246 0-6.583 2.837-6.583 7.989-.001 5.077 2.399 7.99 6.583 7.99zm.356-1.858a2.76 2.76 0 01-1.309-.315.068.068 0 01-.031-.087.07.07 0 01.085-.038c.283.098.585.146.898.146 1.466 0 3.214-1.013 3.214-5.838 0-2.995-.664-4.866-1.974-5.561a.068.068 0 01-.03-.088.067.067 0 01.085-.037c1.601.549 2.412 2.515 2.412 5.843.001 4.938-1.821 5.975-3.35 5.975zm-3.32-6.132c0-2.558.514-5.607 2.963-5.607s2.964 3.049 2.964 5.607c0 2.549-.515 5.587-2.964 5.587s-2.963-3.038-2.963-5.587zM57.146.25c1.083 0 2.061.204 2.905.606a.068.068 0 01.051.067c0 .037-.03.068-.068.068h-.004a.05.05 0 01-.024-.005C59.26.693 58.418.544 57.503.544c-3.996 0-6.196 2.699-6.196 7.602 0 3.512 1.171 5.934 3.388 7.004a.068.068 0 01.032.088.068.068 0 01-.088.037c-2.467-.981-3.826-3.569-3.826-7.287 0-4.989 2.248-7.738 6.333-7.738z"/></defs><use xlink:href="#a" overflow="visible" fill="#FFF"/><clipPath id="b"><use xlink:href="#a" overflow="visible"/></clipPath><path clip-path="url(#b)" fill="#FFF" d="M4.411 0h90.078v19.734H4.411z"/><defs><path id="c" d="M21.146 24.698c2.039 0 2.644 2.821 2.781 3.685a.457.457 0 00.451.385h1.237a.456.456 0 00.456-.456V23.17a.456.456 0 00-.456-.456h-1.196a.45.45 0 00-.368.188c-.098.135-.138.19-.407.19-.148 0-.338-.091-.579-.206-.448-.214-1.063-.508-2.023-.508-4.144 0-6.52 2.957-6.52 8.115 0 5.153 2.181 7.99 6.142 7.99 1.352 0 2.148-.178 2.851-.336.503-.113.939-.21 1.493-.21a.456.456 0 00.453-.393l.607-4.343a.453.453 0 00-.451-.519h-1.28c-.2 0-.377.131-.437.323-.651 2.127-1.544 3.161-2.731 3.161-2.501 0-3.027-3.084-3.027-5.671-.002-1.745.292-5.797 3.004-5.797M20.158 36.3a.07.07 0 01.084-.038c.292.103.604.154.924.154 1.313 0 2.284-1.092 2.973-3.337a.205.205 0 01.196-.146h1.28a.204.204 0 01.203.235c0 .037-.029.06-.068.06h-1.059c-.03 0-.057.02-.065.048-.708 2.311-1.722 3.435-3.102 3.435-.484 0-.934-.108-1.335-.321a.072.072 0 01-.031-.09zm3.089-12.982c.015-.034.052-.052.086-.038a.926.926 0 00.31.064c.339 0 .462-.091.611-.294a.203.203 0 01.165-.084h1.196c.113 0 .206.092.206.205v.021a.07.07 0 01-.069.069h-.977a.067.067 0 00-.055.028c-.169.232-.328.35-.721.35-.231 0-.457-.108-.718-.231a.072.072 0 01-.034-.09zm1.412 5.12a.07.07 0 01-.017.055.063.063 0 01-.051.025h-.214a.205.205 0 01-.203-.174c-.104-.656-.552-2.855-1.945-3.623a.068.068 0 01-.029-.088.068.068 0 01.084-.037c1.67.572 2.217 2.877 2.375 3.842zm-6.225 9.253a.068.068 0 01.032.089.067.067 0 01-.088.036c-2.359-.946-3.607-3.478-3.607-7.322 0-4.997 2.286-7.864 6.27-7.864.822 0 1.355.219 1.83.445.03.007.053.034.053.066a.07.07 0 01-.069.07h-.003a.058.058 0 01-.026-.006 3.595 3.595 0 00-1.429-.28c-3.898 0-6.133 2.817-6.133 7.727.001 3.576 1.096 6.01 3.17 7.039z"/></defs><use xlink:href="#c" overflow="visible" fill="#FFF"/><clipPath id="d"><use xlink:href="#c" overflow="visible"/></clipPath><path clip-path="url(#d)" fill="#FFF" d="M14.521 22.379h11.564v16.104H14.521z"/><path fill="#FFF" d="M87.845 22.715h-5.582a.457.457 0 00-.457.456v1.218c0 .252.205.456.457.456 1.117 0 1.117.155 1.117.53v3.867h-5.13v-3.909c0-.355 0-.488 1.118-.488a.456.456 0 00.456-.456V23.17a.457.457 0 00-.456-.456h-5.582a.455.455 0 00-.456.456v1.218c0 .252.203.456.456.456 1.117 0 1.117.155 1.117.53v9.968c0 .683 0 .845-1.117.845a.455.455 0 00-.456.456v1.217c0 .252.203.456.456.456h5.582a.456.456 0 00.456-.456v-1.217a.456.456 0 00-.456-.456c-1.118 0-1.118-.172-1.118-.805v-3.865h5.13v3.825c0 .683 0 .845-1.117.845a.456.456 0 00-.457.456v1.217c0 .252.205.456.457.456h5.582a.456.456 0 00.456-.456v-1.217a.456.456 0 00-.456-.456c-1.118 0-1.118-.172-1.118-.805v-10.05c0-.355 0-.488 1.118-.488a.456.456 0 00.456-.456V23.17a.456.456 0 00-.456-.455zm-9.349 13.686c.014-.028.048-.045.078-.036.198.048.458.072.795.072.112 0 .205.092.205.206a.088.088 0 01-.021.056c-.014.012-.031.026-.05.026-.499-.017-.804-.09-.989-.239a.072.072 0 01-.018-.085zm8.476 0a.068.068 0 01.078-.036c.198.048.458.072.795.072.112 0 .204.092.204.206a.087.087 0 01-.02.056c-.014.012-.032.026-.05.026h-.001c-.498-.017-.803-.09-.988-.239a.072.072 0 01-.018-.085zM74.143 23.26a.069.069 0 00-.069.068v1.202a.07.07 0 01-.02.048.07.07 0 01-.049.02h-.002l-.069-.001c-.048 0-.095-.003-.147-.003a.206.206 0 01-.207-.205V23.17c0-.112.093-.205.207-.205h5.582c.112 0 .205.092.205.205v.021a.069.069 0 01-.068.069h-5.363zm1.504 12.238c0 .94-.207 1.233-1.504 1.233a.069.069 0 00-.069.069v1.196c0 .038-.03.069-.068.069h-.219a.207.207 0 01-.207-.206v-1.217c0-.114.093-.206.207-.206 1.206 0 1.367-.22 1.367-1.095v-9.968c0-.282-.063-.458-.206-.574a.07.07 0 01-.017-.083.07.07 0 01.076-.036c.454.101.64.347.64.85v9.968zm8.478 0c0 .94-.209 1.233-1.506 1.233a.068.068 0 00-.068.069v1.196a.07.07 0 01-.069.069h-.219a.206.206 0 01-.205-.206v-1.217c0-.114.092-.206.205-.206 1.207 0 1.368-.22 1.368-1.095v-3.987c0-.038.03-.069.068-.069h.356a.07.07 0 01.069.069v4.144zm0-5.781a.07.07 0 01-.069.069h-5.768a.07.07 0 01-.069-.069v-.157c0-.037.031-.068.069-.068h5.343v-4.118c0-.282-.064-.458-.205-.574a.07.07 0 01-.019-.083.071.071 0 01.076-.036c.455.101.642.347.642.85v4.186zm3.924-6.526c0 .038-.03.069-.067.069H82.62a.068.068 0 00-.068.068v1.202a.067.067 0 01-.021.048.067.067 0 01-.048.02h-.001l-.07-.001c-.046 0-.095-.003-.147-.003a.205.205 0 01-.205-.205V23.17c0-.112.092-.205.205-.205h5.582c.112 0 .204.092.204.205v.021z"/><defs><path id="e" d="M13.592 22.715H8.431a.457.457 0 00-.457.456v1.218c0 .241.188.44.428.456.958.06.958.323.958.656-.005.35-.669 2.547-1.424 4.749-.286-.508-.552-.982-.8-1.42-.926-1.638-1.726-3.052-1.774-3.329 0-.366 0-.656.762-.656a.456.456 0 00.456-.456V23.17a.457.457 0 00-.456-.456H.457A.457.457 0 000 23.17v1.218c0 .24.186.438.425.456.615.042.894.467 1.4 1.327l4.66 7.984c-.627 1.836-.982 1.989-1.349 1.989-.856 0-1.472-.986-1.882-3.012a.456.456 0 00-.448-.367H1.464a.46.46 0 00-.451.52l.608 4.324c.03.212.206.376.42.391.345.022.673.103 1.054.195.558.136 1.191.289 2.02.289 1.969 0 2.984-.539 4.165-3.871.669-1.872 1.372-3.891 2-5.694.358-1.027.691-1.984.979-2.801.319-.882.69-1.228 1.365-1.273a.457.457 0 00.424-.456V23.17a.456.456 0 00-.456-.455M2.956 33.31H1.821c-.02 0-.039.01-.053.024a.07.07 0 00-.015.054l.607 4.315a.069.069 0 01-.019.058.07.07 0 01-.049.02h-.009l-.087-.013c-.045-.007-.091-.015-.138-.018a.205.205 0 01-.189-.177l-.608-4.323a.206.206 0 01.047-.162.214.214 0 01.156-.072h1.343c.097 0 .182.07.202.166l.006.025c.006.009.01.022.01.035a.069.069 0 01-.069.068zM.765 24.59c0 .037-.03.068-.068.068H.694c-.005 0-.011 0-.017-.002-.03-.007-.058-.017-.087-.026-.049-.016-.094-.032-.147-.036a.205.205 0 01-.191-.205V23.17c0-.112.092-.205.206-.205h5.666c.113 0 .205.092.205.205v.021a.069.069 0 01-.068.069H.813a.069.069 0 00-.068.068v1.213c.012.012.02.029.02.049zm6.442 9.846c-.649 1.904-1.087 2.253-1.714 2.253-.271 0-.526-.073-.757-.218a.066.066 0 01-.026-.085.066.066 0 01.081-.038c.112.031.229.047.347.047.563 0 .963-.334 1.586-2.16l.037-.109-.058-.098-4.659-7.985c-.32-.543-.595-.977-.971-1.224a.07.07 0 01-.024-.087c.014-.03.047-.049.082-.036.61.181.945.685 1.389 1.435l4.733 8.111c.01.018.012.037.005.057l-.051.137zm1.452-3.905l-.232.674a.068.068 0 01-.058.045h-.006a.07.07 0 01-.06-.034l-.254-.455a.063.063 0 01-.005-.055l.13-.378c.592-1.726 1.431-4.367 1.437-4.83 0-.333-.085-.535-.283-.672a.067.067 0 01-.023-.085.07.07 0 01.08-.037c.632.169.72.558.72.953-.008.507-.891 3.258-1.446 4.874zm5.139-7.34a.069.069 0 01-.068.069H8.787a.069.069 0 00-.068.068v1.195a.075.075 0 01.004.026c0 .039-.03.07-.068.07l-.003-.001c-.003.001-.006 0-.009-.001l-.041-.004c-.059-.007-.118-.015-.186-.019a.207.207 0 01-.192-.205V23.17c0-.112.092-.205.206-.205h5.162c.113 0 .206.092.206.205v.021z"/></defs><use xlink:href="#e" overflow="visible" fill="#FFF"/><clipPath id="f"><use xlink:href="#e" overflow="visible"/></clipPath><path clip-path="url(#f)" fill="#FFF" d="M0 22.715h14.048v15.769H0z"/><defs><path id="g" d="M71.703 36.188c-.478-.042-.801-.221-1.051-1.025-.222-.706-.649-2.008-1.125-3.453-.817-2.486-2.054-6.241-2.106-6.61 0-.192 0-.256.509-.256a.455.455 0 00.456-.456V23.17a.456.456 0 00-.456-.456h-6.694a.457.457 0 00-.457.456v1.218c0 .246.194.447.44.456.694.025.694.104.694.247-.052.663-2.504 7.613-3.412 10.024-.332.87-.606 1.034-1.099 1.073a.456.456 0 00-.421.455v1.217c0 .252.205.456.457.456h5.099a.456.456 0 00.456-.456v-1.217a.455.455 0 00-.441-.456c-1.195-.039-1.195-.457-1.195-.615 0-.402.246-1.159.484-1.887l.043-.132h4.752c.285.872.562 1.816.565 2.02 0 .344 0 .615-.845.615a.455.455 0 00-.456.456v1.217c0 .252.203.456.456.456h5.308a.455.455 0 00.457-.456v-1.217a.458.458 0 00-.418-.456m-10.031.158a.069.069 0 01.083-.037c.248.078.498.118.789.128.107.004.19.088.196.196a.067.067 0 01-.021.052.065.065 0 01-.047.02h-.006c-.441-.038-.758-.127-.97-.274a.068.068 0 01-.024-.085zm-.08-13.086a.069.069 0 00-.069.068v1.21c0 .02-.008.037-.021.049a.066.066 0 01-.046.02h-.005l-.051-.003c-.057-.003-.113-.008-.17-.01a.203.203 0 01-.198-.205V23.17c0-.112.092-.205.206-.205h6.694c.114 0 .206.092.206.205v.021c0 .038-.03.069-.068.069h-6.478zm2.791 3.096l1.538 4.836h-3.225l1.687-4.836zm-5.162 9.052c-.356.933-.717 1.266-1.432 1.323a.067.067 0 00-.063.069v1.196a.07.07 0 01-.069.069h-.219a.206.206 0 01-.206-.206v-1.217c0-.109.083-.197.19-.205.658-.053.978-.353 1.314-1.235.831-2.206 3.369-9.362 3.428-10.117a.38.38 0 00-.137-.305c-.023-.02-.029-.053-.016-.081s.044-.044.074-.037c.245.044.572.153.572.584-.06.787-2.578 7.881-3.436 10.162zm7.548-3.7a.07.07 0 01-.055.028h-4.111a.07.07 0 01-.055-.028.067.067 0 01-.009-.063l.055-.157a.069.069 0 01.064-.047h3.606l-1.735-5.458a.073.073 0 01.001-.044l.16-.46a.07.07 0 01.064-.045c.021 0 .056.019.065.047l1.96 6.167a.065.065 0 01-.01.06zm-.057 5.023a.069.069 0 00-.069.069v1.196c0 .038-.03.069-.068.069h-.219a.206.206 0 01-.206-.206v-1.217c0-.114.092-.206.206-.206.916 0 1.095-.32 1.095-.873-.006-.313-.443-1.679-.577-2.09l-.021-.063a.071.071 0 01.01-.063.064.064 0 01.055-.028h.306a.07.07 0 01.065.048l.071.22c.174.532.578 1.807.585 2.132 0 .609-.21 1.012-1.233 1.012zm5.126-.076a.072.072 0 01-.05.021c-.005 0-.011 0-.016-.002a1.35 1.35 0 01-.427-.176.068.068 0 01-.024-.085.064.064 0 01.08-.038l.061.017c.072.021.141.039.22.046.079.006.146.065.172.151a.067.067 0 01-.016.066z"/></defs><use xlink:href="#g" overflow="visible" fill="#FFF"/><clipPath id="h"><use xlink:href="#g" overflow="visible"/></clipPath><path clip-path="url(#h)" fill="#FFF" d="M56.981 22.715h15.14v15.601h-15.14z"/><defs><path id="i" d="M56.629 36.349a.458.458 0 00-.35-.162c-1.793 0-1.919-.902-2.128-2.42-.235-1.683-.751-3.439-2.697-4.048.707-.964 2.171-2.934 3.064-3.932.634-.696.964-.943 1.553-.943a.456.456 0 00.456-.456V23.17a.456.456 0 00-.456-.456h-5.477a.456.456 0 00-.456.456v1.218c0 .252.204.456.456.456.928 0 .928.25.932.344-.063.261-.826 1.291-1.33 1.973l-.324.437c-.849 1.14-1.259 1.644-2.069 1.644h-.718v-3.909c0-.355 0-.488 1.118-.488a.456.456 0 00.456-.456V23.17a.456.456 0 00-.456-.456h-5.582a.457.457 0 00-.457.456v1.218c0 .252.205.456.457.456 1.117 0 1.117.155 1.117.53v9.968c0 .683 0 .845-1.117.845a.456.456 0 00-.457.456v1.217c0 .252.205.456.457.456h5.582a.456.456 0 00.456-.456v-1.217a.456.456 0 00-.456-.456c-1.118 0-1.118-.172-1.118-.805v-3.865h.677c1.958 0 2.403 1.497 2.921 3.231.521 1.751 1.113 3.736 3.563 3.736 1.357 0 1.911-.173 1.97-.192a.456.456 0 00.306-.354l.209-1.218a.461.461 0 00-.102-.371m-9.299.052a.066.066 0 01.078-.036c.198.048.458.072.794.072.113 0 .206.092.206.206a.083.083 0 01-.021.056c-.013.012-.03.026-.049.026h-.001c-.498-.017-.802-.09-.988-.239a.07.07 0 01-.019-.085zm4.696-6.162a.069.069 0 01.027.089.068.068 0 01-.062.04.051.051 0 01-.025-.005c-.035-.014-.068-.03-.103-.046a1.445 1.445 0 00-.168-.069l-.426-.133a.067.067 0 01-.044-.043.078.078 0 01.01-.063l.027-.038a.067.067 0 01.076-.024l.043.014c.226.07.438.161.645.278zm-1.075-6.979a.068.068 0 00-.069.068v1.202a.067.067 0 01-.021.049.067.067 0 01-.048.02l-.003-.001c-.083-.002-.159-.004-.216-.004a.205.205 0 01-.206-.205V23.17c0-.112.092-.205.206-.205h5.477c.114 0 .206.092.206.205v.021a.07.07 0 01-.069.069h-5.257zm-7.974 0a.069.069 0 00-.069.068v1.202a.063.063 0 01-.021.048.067.067 0 01-.048.02h-.001l-.071-.001c-.047 0-.095-.003-.147-.003a.206.206 0 01-.207-.205V23.17c0-.112.092-.205.207-.205h5.582c.113 0 .206.092.206.205v.021c0 .038-.03.069-.069.069h-5.362zm1.504 12.238c0 .94-.207 1.233-1.504 1.233a.069.069 0 00-.069.069v1.196a.069.069 0 01-.068.069h-.219a.207.207 0 01-.207-.206v-1.217c0-.114.092-.206.207-.206 1.207 0 1.367-.22 1.367-1.095v-9.968c0-.282-.063-.458-.205-.574a.07.07 0 01-.018-.083c.014-.028.046-.041.077-.036.454.101.64.347.64.85v9.968zm2.641-5.712a.07.07 0 01-.069-.069v-.157c0-.037.031-.068.069-.068h.681c.97 0 1.459-.657 2.271-1.744l.341-.461c.85-1.15 1.293-1.781 1.355-2.04l.008-.035-.002-.036a.457.457 0 00-.206-.376.067.067 0 01-.021-.084.07.07 0 01.078-.038c.414.1.63.318.642.65l.001.043-.001.017-.01.045c-.069.287-.481.877-1.378 2.091l-.342.461c-.837 1.122-1.342 1.8-2.381 1.8h-1.036zm6.093 8.204a.07.07 0 01-.062.039.054.054 0 01-.025-.006c-1.363-.521-1.812-2.023-2.206-3.348-.365-1.223-.742-2.488-1.745-3.063a.069.069 0 01-.028-.088c.014-.033.051-.046.086-.035 1.338.5 1.763 1.927 2.174 3.304.369 1.235.749 2.51 1.778 3.108a.07.07 0 01.028.089zm3.242-1.296a.066.066 0 01-.047.019h-.004c-.497-.024-.889-.123-1.197-.301a.07.07 0 01-.028-.087.07.07 0 01.084-.038c.312.104.633.151 1.015.151.061 0 .118.026.157.072a.207.207 0 01.042.136.07.07 0 01-.022.048z"/></defs><use xlink:href="#i" overflow="visible" fill="#FFF"/><clipPath id="j"><use xlink:href="#i" overflow="visible"/></clipPath><path clip-path="url(#j)" fill="#FFF" d="M42.164 22.715h14.588v15.769H42.164z"/><defs><path id="k" d="M121.382 24.844a.455.455 0 00.456-.456V23.17a.455.455 0 00-.456-.456h-5.58a.455.455 0 00-.456.456v1.218c0 .252.203.456.456.456 1.118 0 1.118.022 1.118.593v10.392h-5.132V25.437c0-.537 0-.593 1.118-.593a.455.455 0 00.456-.456V23.17a.456.456 0 00-.456-.456h-5.582a.456.456 0 00-.456.456v1.218c0 .252.204.456.456.456 1.117 0 1.117.036 1.117.635v9.863c0 .49 0 .845-1.117.845a.455.455 0 00-.456.456v1.217c0 .252.204.456.456.456l9.796-.001c1.974.104 2.309 1.466 2.594 3.531a.457.457 0 00.452.394h1.216a.454.454 0 00.456-.457v-5.14a.455.455 0 00-.456-.456c-1.117 0-1.117-.355-1.117-.845v-9.863c0-.562 0-.635 1.117-.635m-13.701-1.584a.068.068 0 00-.068.068v1.2a.068.068 0 01-.021.048.07.07 0 01-.049.021h-.054l-.165-.002a.205.205 0 01-.205-.205v-1.22c0-.112.092-.205.205-.205h5.582c.113 0 .206.092.206.205v.021a.07.07 0 01-.069.069h-5.362zm1.506 12.238c0 .649-.116 1.233-1.506 1.233a.068.068 0 00-.068.069v1.196a.07.07 0 01-.069.069h-.219a.206.206 0 01-.205-.206v-1.217c0-.114.092-.206.205-.206 1.267 0 1.368-.475 1.368-1.095v-9.863c0-.367-.058-.577-.192-.699a.066.066 0 01-.016-.08.064.064 0 01.074-.037c.463.087.628.341.628.973v9.863zm8.477.808c0 .038-.03.068-.068.068h-5.769a.067.067 0 01-.068-.068v-.156c0-.039.03-.07.068-.07h5.343V25.437c0-.342-.056-.546-.182-.664a.072.072 0 01-.015-.08c.015-.028.042-.045.073-.038.45.081.617.335.617.938v10.713zm2.929.089c.014-.028.049-.045.078-.036.199.052.434.078.711.078.114 0 .207.092.207.206a.086.086 0 01-.021.054.075.075 0 01-.049.023h-.003c-.408-.022-.702-.1-.9-.238a.07.07 0 01-.023-.087zm-.143 5.516a.064.064 0 01-.017.053.066.066 0 01-.052.024h-.215a.202.202 0 01-.202-.178c-.199-1.431-.462-2.767-1.483-3.375a.068.068 0 01-.026-.089.07.07 0 01.086-.033c1.375.541 1.687 2.01 1.909 3.598zm-4.291-18.651a.069.069 0 00-.069.068v1.197a.072.072 0 01-.02.05.068.068 0 01-.048.021h-.001l-.219-.002a.205.205 0 01-.206-.205V23.17c0-.112.092-.205.206-.205h5.58c.114 0 .207.092.207.205v.021a.07.07 0 01-.069.069h-5.361z"/></defs><use xlink:href="#k" overflow="visible" fill="#FFF"/><clipPath id="l"><use xlink:href="#k" overflow="visible"/></clipPath><path clip-path="url(#l)" fill="#FFF" d="M106.869 22.715h14.97v19.524h-14.97z"/><defs><path id="m" d="M41.127 22.715h-5.161a.457.457 0 00-.457.456v1.218c0 .241.188.44.428.456.957.06.957.323.957.656-.003.35-.667 2.547-1.423 4.749a416.55 416.55 0 00-.8-1.42c-.926-1.638-1.726-3.052-1.773-3.329 0-.366 0-.656.761-.656a.457.457 0 00.457-.456V23.17a.457.457 0 00-.457-.456h-5.666a.457.457 0 00-.457.456v1.218c0 .24.185.438.424.456.616.042.894.467 1.401 1.327l4.659 7.984c-.626 1.836-.982 1.989-1.348 1.989-.857 0-1.473-.986-1.882-3.012a.456.456 0 00-.448-.367h-1.343a.461.461 0 00-.452.52l.609 4.324c.03.212.205.376.42.391.344.022.674.103 1.055.195.558.136 1.191.289 2.02.289 1.968 0 2.983-.539 4.164-3.871.669-1.872 1.372-3.891 2-5.694.357-1.027.69-1.984.979-2.801.319-.882.689-1.228 1.365-1.273a.458.458 0 00.425-.456V23.17a.456.456 0 00-.457-.455M30.492 33.31h-1.137a.072.072 0 00-.051.024.07.07 0 00-.016.054l.608 4.315a.067.067 0 01-.02.058.067.067 0 01-.048.02h-.009l-.087-.013c-.045-.007-.091-.015-.139-.018a.204.204 0 01-.188-.177l-.609-4.323a.21.21 0 01.048-.162.212.212 0 01.155-.072h1.343c.097 0 .182.07.201.166l.006.025c.006.009.01.022.01.035a.067.067 0 01-.067.068zm-2.191-8.72c0 .037-.03.068-.068.068h-.004c-.005 0-.011 0-.017-.002-.03-.007-.059-.017-.087-.026-.048-.016-.093-.032-.146-.036a.205.205 0 01-.191-.205V23.17c0-.112.092-.205.206-.205h5.666c.114 0 .206.092.206.205v.021a.07.07 0 01-.069.069h-5.446a.069.069 0 00-.069.068v1.213c.01.012.019.029.019.049zm6.442 9.846c-.649 1.904-1.087 2.253-1.714 2.253a1.41 1.41 0 01-.758-.218.067.067 0 01-.026-.085.064.064 0 01.08-.038c.112.031.229.047.347.047.563 0 .962-.334 1.585-2.16l.038-.109-.057-.098-4.66-7.985c-.321-.543-.595-.977-.971-1.224a.07.07 0 01-.025-.087c.014-.03.047-.049.082-.036.61.181.945.685 1.388 1.435l4.733 8.111a.075.075 0 01.005.057l-.047.137zm1.451-3.905l-.231.674a.067.067 0 01-.059.045h-.006a.07.07 0 01-.06-.034l-.254-.455a.07.07 0 01-.005-.055l.129-.378c.593-1.726 1.432-4.367 1.437-4.83 0-.333-.084-.535-.282-.672a.066.066 0 01-.023-.085.069.069 0 01.08-.037c.632.169.72.558.72.953-.008.507-.891 3.258-1.446 4.874zm5.139-7.34a.07.07 0 01-.069.069h-4.942a.069.069 0 00-.069.068v1.195a.075.075 0 01.005.026c0 .039-.03.07-.067.07l-.003-.001c-.003.001-.006 0-.009-.001l-.041-.004c-.059-.007-.118-.015-.186-.019a.206.206 0 01-.192-.205V23.17c0-.112.092-.205.206-.205h5.161c.113 0 .206.092.206.205v.021z"/></defs><use xlink:href="#m" overflow="visible" fill="#FFF"/><clipPath id="n"><use xlink:href="#m" overflow="visible"/></clipPath><path clip-path="url(#n)" fill="#FFF" d="M27.536 22.715h14.048v15.769H27.536z"/><defs><path id="o" d="M137.519 36.188c-.476-.042-.8-.221-1.05-1.025-.223-.706-.65-2.008-1.127-3.453-.815-2.486-2.053-6.241-2.104-6.61 0-.192 0-.256.508-.256a.456.456 0 00.457-.456V23.17a.457.457 0 00-.457-.456h-6.694a.456.456 0 00-.455.456v1.218c0 .246.193.447.439.456.693.025.693.104.693.247-.052.663-2.504 7.613-3.411 10.024-.331.87-.605 1.034-1.1 1.073a.457.457 0 00-.421.455v1.217c0 .252.205.456.457.456h5.099a.455.455 0 00.456-.456v-1.217a.455.455 0 00-.442-.456c-1.193-.039-1.193-.457-1.193-.615 0-.402.246-1.159.484-1.887l.044-.132h4.751c.285.872.561 1.816.564 2.02 0 .344 0 .615-.845.615a.455.455 0 00-.456.456v1.217c0 .252.204.456.456.456h5.31a.456.456 0 00.456-.456v-1.217a.457.457 0 00-.419-.456m-10.029.158a.068.068 0 01.082-.037c.247.078.497.118.788.128.107.004.19.088.196.196a.063.063 0 01-.02.052.07.07 0 01-.049.02h-.005c-.441-.038-.759-.127-.971-.274a.066.066 0 01-.021-.085zm-.082-13.086a.069.069 0 00-.067.068v1.21c0 .02-.009.037-.022.049a.063.063 0 01-.047.02h-.004l-.052-.003c-.056-.003-.113-.008-.171-.01a.203.203 0 01-.197-.205V23.17c0-.112.092-.205.204-.205h6.694c.114 0 .207.092.207.205v.021a.07.07 0 01-.069.069h-6.476zm2.794 3.096l1.535 4.836h-3.224l1.689-4.836zm-5.164 9.052c-.354.933-.716 1.266-1.433 1.323a.067.067 0 00-.063.069v1.196c0 .038-.03.069-.069.069h-.219a.206.206 0 01-.205-.206v-1.217c0-.109.082-.197.189-.205.658-.053.979-.353 1.314-1.235.83-2.208 3.37-9.367 3.427-10.117a.376.376 0 00-.136-.305.07.07 0 01-.017-.081c.014-.027.044-.044.074-.037.245.044.572.153.572.584-.058.782-2.576 7.88-3.434 10.162zm7.547-3.7a.069.069 0 01-.056.028h-4.109a.073.073 0 01-.056-.028.067.067 0 01-.01-.063l.055-.157a.072.072 0 01.065-.047h3.606l-.104-.326-1.633-5.133a.079.079 0 010-.043l.162-.461a.068.068 0 01.064-.045c.03 0 .056.021.064.048l1.96 6.166a.058.058 0 01-.008.061zm-.056 5.023a.068.068 0 00-.068.069v1.196a.07.07 0 01-.069.069h-.219a.206.206 0 01-.205-.206v-1.217c0-.114.092-.206.205-.206.916 0 1.096-.32 1.096-.873-.007-.313-.443-1.679-.577-2.09l-.021-.063a.068.068 0 01.066-.091h.306c.028 0 .055.02.063.048l.073.22c.173.532.578 1.807.585 2.132-.002.609-.212 1.012-1.235 1.012zm5.126-.076a.068.068 0 01-.051.021c-.004 0-.009 0-.015-.002a1.32 1.32 0 01-.425-.176.068.068 0 01-.026-.085c.014-.031.047-.049.079-.038l.063.017c.071.021.14.039.219.046.081.006.147.065.172.151a.07.07 0 01-.016.066z"/></defs><use xlink:href="#o" overflow="visible" fill="#FFF"/><clipPath id="p"><use xlink:href="#o" overflow="visible"/></clipPath><path clip-path="url(#p)" fill="#FFF" d="M122.797 22.715h15.141v15.601h-15.141z"/><defs><path id="q" d="M104.437 24.844a.458.458 0 00.427-.456V23.17a.456.456 0 00-.457-.456h-3.377a.462.462 0 00-.391.217l-5.826 9.512v-7.111c0-.355 0-.488 1.118-.488a.455.455 0 00.455-.456V23.17a.456.456 0 00-.455-.456h-5.582a.457.457 0 00-.457.456v1.218c0 .252.205.456.457.456 1.117 0 1.117.155 1.117.53v9.863c0 .529 0 .95-1.013.95a.456.456 0 00-.456.456v1.217c0 .252.205.456.456.456h3.274a.46.46 0 00.387-.214l5.83-9.368v6.609c0 .683 0 .845-1.118.845a.455.455 0 00-.456.456v1.217c0 .252.203.456.456.456h5.58a.455.455 0 00.457-.456v-1.217a.455.455 0 00-.457-.456c-1.117 0-1.117-.215-1.117-.845v-9.338c.001-.92.001-1.086 1.148-1.161m-.871 11.562a.072.072 0 01.078-.038c.193.046.444.069.763.069.114 0 .207.092.207.206a.088.088 0 01-.021.056c-.014.012-.03.025-.049.025h-.001c-.47-.017-.765-.089-.955-.234a.065.065 0 01-.022-.084zm-11.355-1.012c0 .533 0 1.337-1.401 1.337a.067.067 0 00-.067.069v1.196a.07.07 0 01-.069.069h-.22a.206.206 0 01-.205-.206v-1.217c0-.114.092-.206.205-.206 1.264 0 1.264-.666 1.264-1.2v-9.863c0-.282-.063-.458-.205-.574a.072.072 0 01-.019-.083.071.071 0 01.076-.036c.455.101.642.347.642.85v9.864zM90.706 23.26a.068.068 0 00-.068.068v1.202a.067.067 0 01-.021.048.066.066 0 01-.048.02h-.001l-.07-.001c-.046 0-.095-.003-.147-.003a.205.205 0 01-.206-.205V23.17c0-.112.093-.205.206-.205h5.582c.113 0 .206.092.206.205v.021a.07.07 0 01-.069.069h-5.364zm9.982 12.238c0 .94-.207 1.233-1.505 1.233a.069.069 0 00-.069.069v1.196c0 .038-.03.069-.067.069h-.22a.206.206 0 01-.206-.206v-1.217c0-.114.092-.206.206-.206 1.207 0 1.367-.22 1.367-1.095v-6.995c0-.014.004-.027.011-.037l.356-.573a.063.063 0 01.076-.03c.03.008.051.035.051.065v7.727zm.698-12.238a.076.076 0 00-.06.031L94.91 33.768a.07.07 0 01-.059.033c-.006 0-.013 0-.019-.002a.069.069 0 01-.05-.065v-.74c0-.012.004-.025.01-.035l6.062-9.894a.206.206 0 01.176-.098h3.377c.114 0 .207.092.207.205v.021a.07.07 0 01-.069.069h-3.159z"/></defs><use xlink:href="#q" overflow="visible" fill="#FFF"/><clipPath id="r"><use xlink:href="#q" overflow="visible"/></clipPath><path clip-path="url(#r)" fill="#FFF" d="M89.892 22.715h14.972v15.601H89.892z"/></svg>