<svg xmlns="http://www.w3.org/2000/svg" width="134" height="48.335" viewBox="25.953 9.325 134 48.335"><path d="M81.202 11.424c1.16-.12 2.269.298 3.327 1.258.613.788 1.313 1.889 2.097 3.303l.349.283 1.622 3.35.587 1.062.225.616.81 1.676.637 1.535c.17.624.458 1.341.861 2.149l.875 2.313c.265.505.495 1.174.687 2.007.403.811.778 1.892 1.13 3.241l.191.303.973 3.257c.268.507.496 1.176.688 2.01l.064.631.688 2.01c.094.949.205 1.764.33 2.444.121.683.436 1.421.945 2.225.664-.816 1.252-1.835 1.764-3.063l3.529-7.717.344-1.313.268-.508.709-2.471c.262-.558.506-1.276.738-2.153l.266-.508.922-5.053-.053-2.072.223-.981c-.006-1.068-.244-2.376-.725-3.927-1.24-1.683-2.957-2.841-5.15-3.468-1.186-.092-2.322.237-3.418.988l-.365-.444c.906-.519 1.686-1.237 2.338-2.157l.299-.191 2.213-1.824.584-.542c5.832-1.343 9.162.981 9.988 6.973-.027.749-.154 1.614-.373 2.597l-.594 1.982.047.472-2.186 5.183-.111.492-.523 1.173c-.158.549-.459 1.219-.912 2.012l-.361 1.157-.551.857-1.039 2.345c-.381.464-.738 1.141-1.072 2.025l-1.039 2.346-.393.84c-.654.922-1.102 1.765-1.342 2.536-.482.477-.893 1.157-1.23 2.047l-.283.347-.645 1.507c-.465.688-.953 1.642-1.467 2.868-.135.761-.154 1.612-.055 2.564-.283.351-.504.799-.662 1.348l-1.498 2.551-.555.855.051.477-.281.35-.637.063-.418-2.516c-.447-.972-.525-1.934-.939-2.941l-.339-1.728c-.063-.63-.246-1.357-.542-2.184l-.238-.772-.702-2.169c-.287-.713-.54-1.597-.751-2.638-.266-.508-.495-1.177-.687-2.01l-.588-1.061-.702-2.167-.361-.441c-.236-1.255-.767-2.801-1.595-4.635l-.812-1.675-.254-.935-1.64-3.509c-.497-.696-.906-1.561-1.225-2.594l-.365-.441-.604-1.22-.366-.44-.237-.774-2.573-3.256-1.014-.537c-1.233.448-2.209 1.344-2.923 2.7l-.474.047c.388-1.425 1.211-2.735 2.477-3.932.786-1.68 2.126-3.148 4.023-4.408M25.953 50.811c1.516-.338 1.67-1.046 1.67-4.094v-9.98c0-3.043-.116-3.651-1.67-4.024v-.236h6.022v.236c-1.516.373-1.71.98-1.71 4.024v9.98c0 3.048.118 3.756 1.671 4.094v.238h-5.983v-.238m12.24 0c1.516-.338 1.67-1.046 1.67-4.094V36.334c0-2.503-.117-3.182-1.67-3.622v-.236h4.74L54.318 47.6V36.736c0-3.043-.118-3.651-1.671-4.024v-.236h5.712v.236c-1.516.373-1.71.98-1.71 4.024v14.313H53.89L42.234 35.522v11.194c0 3.048.116 3.756 1.669 4.094v.238h-5.71v-.237m25.764-9.067c0-5.58 4.312-9.642 10.178-9.642 6.06 0 10.18 4.062 10.18 9.642 0 5.648-4.274 9.609-10.18 9.609-6.023.001-10.178-3.96-10.178-9.609m17.561.1c0-4.664-3.421-7.744-7.538-7.744-4.041 0-7.267 2.941-7.267 7.546 0 4.702 3.421 7.743 7.538 7.743 4.041 0 7.267-2.906 7.267-7.545z"/><path d="M101.588 50.811c1.518-.338 1.672-1.046 1.672-4.094v-9.98c0-3.043-.119-3.651-1.672-4.024v-.236h6.025v.236c-1.518.373-1.711.98-1.711 4.024v9.98c0 3.048.117 3.756 1.672 4.094v.238h-5.986v-.238m12.242 0c1.514-.338 1.672-1.046 1.672-4.094V36.334c0-2.503-.119-3.182-1.672-3.622v-.236h4.738l11.383 15.123V36.736c0-3.043-.113-3.651-1.67-4.024v-.236h5.715v.236c-1.516.373-1.711.98-1.711 4.024v14.313h-2.758l-11.654-15.526v11.194c0 3.048.115 3.756 1.668 4.093v.238h-5.711v-.237m25.76-9.067c0-5.58 4.314-9.642 10.182-9.642 6.059 0 10.182 4.062 10.182 9.642 0 5.648-4.275 9.609-10.182 9.609-6.022.001-10.182-3.96-10.182-9.609m17.564.1c0-4.664-3.42-7.744-7.539-7.744-4.039 0-7.264 2.941-7.264 7.546 0 4.702 3.418 7.743 7.539 7.743 4.038 0 7.264-2.906 7.264-7.545zm-127.3 4.873v-9.98c0-2.099.078-3.214.785-3.848h-3.337c.69.629.735 1.735.735 3.848v9.98c0 2.058-.04 3.248-.758 3.919h3.305c-.683-.646-.73-1.8-.73-3.919m12.25-11.589a.415.415 0 01.46.146l11.531 15.362h2.14v-13.9c0-2.099.078-3.214.787-3.848h-3.026c.69.629.735 1.735.735 3.848V47.6a.416.416 0 01-.283.392.42.42 0 01-.46-.143l-11.26-14.96h-3.234c.743.633.782 1.66.782 3.445v10.383c0 2.058-.039 3.248-.755 3.919h3.032c-.684-.646-.732-1.8-.732-3.919V35.522c0-.178.114-.337.283-.394m32.031-2.612c-5.66 0-9.767 3.88-9.767 9.229 0 5.415 4.016 9.197 9.767 9.197 5.752 0 9.767-3.782 9.767-9.197-.001-5.435-4.015-9.229-9.767-9.229m.116 17.286c-4.607 0-7.949-3.43-7.949-8.156 0-4.611 3.229-7.958 7.678-7.958 4.532 0 7.952 3.508 7.952 8.157 0 4.61-3.231 7.957-7.681 7.957z"/><path d="M105.488 46.717v-9.98c0-2.099.08-3.214.787-3.848h-3.338c.688.629.736 1.735.736 3.848v9.98c0 2.058-.039 3.248-.756 3.919h3.303c-.683-.646-.732-1.8-.732-3.919m12.25-11.589a.415.415 0 01.461.146l11.533 15.362h2.139v-13.9c0-2.099.078-3.214.787-3.848h-3.023c.684.629.732 1.735.732 3.848V47.6a.413.413 0 01-.279.392.42.42 0 01-.461-.143l-11.264-14.96h-3.23c.744.633.781 1.66.781 3.445v10.383c0 2.058-.037 3.248-.754 3.919h3.031c-.684-.646-.73-1.8-.73-3.919V35.522c0-.178.113-.337.277-.394m32.033-2.612c-5.658 0-9.768 3.88-9.768 9.229 0 5.415 4.02 9.197 9.768 9.197 5.752 0 9.768-3.782 9.768-9.197 0-5.435-4.016-9.229-9.768-9.229m.12 17.286c-4.609 0-7.953-3.43-7.953-8.156 0-4.611 3.229-7.958 7.68-7.958 4.531 0 7.947 3.508 7.947 8.157-.001 4.61-3.227 7.957-7.674 7.957zM29.656 46.909V36.93c0-2.101.077-3.216.786-3.849h-3.336c.688.625.734 1.734.734 3.849v9.979c0 2.054-.039 3.247-.755 3.917h3.305c-.687-.64-.734-1.798-.734-3.917M41.908 35.32a.42.42 0 01.46.143l11.533 15.363h2.139V36.931c0-2.101.079-3.216.785-3.849h-3.023c.687.625.733 1.734.733 3.849v10.858a.423.423 0 01-.28.394.413.413 0 01-.46-.146L42.533 33.082h-3.236c.744.631.785 1.66.785 3.443V46.91c0 2.053-.039 3.246-.757 3.917h3.034c-.685-.641-.732-1.799-.732-3.917V35.709c0-.176.114-.332.281-.389m32.03-2.614c-5.658 0-9.766 3.883-9.766 9.229 0 5.418 4.018 9.199 9.766 9.199 5.751 0 9.769-3.781 9.769-9.199 0-5.43-4.017-9.229-9.769-9.229m.119 17.287c-4.607 0-7.951-3.431-7.951-8.161 0-4.608 3.23-7.955 7.677-7.955 4.535 0 7.952 3.508 7.952 8.162 0 4.611-3.229 7.954-7.678 7.954z"/><path d="M105.293 46.909V36.93c0-2.101.078-3.216.787-3.849h-3.336c.689.625.73 1.734.73 3.849v9.979c0 2.054-.037 3.247-.758 3.917h3.307c-.683-.64-.73-1.798-.73-3.917m12.254-11.589a.424.424 0 01.461.143l11.529 15.363h2.143V36.931c0-2.101.08-3.216.781-3.849h-3.023c.689.625.736 1.734.736 3.849v10.858a.411.411 0 01-.742.248l-11.26-14.956h-3.236c.742.631.783 1.659.783 3.444V46.91c0 2.054-.041 3.247-.754 3.917h3.029c-.682-.641-.73-1.798-.73-3.917v-11.2c0-.177.113-.333.283-.39m32.027-2.614c-5.658 0-9.764 3.883-9.764 9.229 0 5.418 4.014 9.199 9.764 9.199 5.754 0 9.768-3.781 9.768-9.199 0-5.43-4.014-9.229-9.768-9.229m.119 17.287c-4.605 0-7.951-3.431-7.951-8.161 0-4.608 3.232-7.955 7.678-7.955 4.531 0 7.953 3.508 7.953 8.162 0 4.611-3.23 7.954-7.68 7.954z"/></svg>