<svg xmlns="http://www.w3.org/2000/svg" width="109.009" height="13.981"><path fill-rule="evenodd" clip-rule="evenodd" fill="#101010" d="M107.373 11.608c.246.506.5.951.773 1.34.27.391.559.735.863 1.033h-4.632c.171-.177.305-.35.387-.521.085-.172.124-.352.124-.533 0-.152-.015-.313-.051-.48a2.105 2.105 0 00-.141-.45l-.538-1.065h-8.833l-.445.916a3.083 3.083 0 00-.148.478 2.3 2.3 0 00-.055.51c0 .231.043.442.129.638.09.191.215.365.383.51h-4.654a7.61 7.61 0 00.858-1.026c.258-.372.52-.822.777-1.347l5.32-10.578a3.62 3.62 0 00.144-.356.769.769 0 00.04-.231.596.596 0 00-.047-.188 1.645 1.645 0 00-.114-.247L102.25 0a2.727 2.727 0 00-.133.293.486.486 0 00-.039.176c0 .063.016.137.043.232.031.089.074.191.129.297l5.123 10.61zM96.291 8.832h6.962l-3.565-7.133-3.397 7.133zM3.569 1.836v9.632c0 .674.086 1.205.258 1.598.172.387.449.693.839.916H0c.391-.223.671-.529.847-.916.176-.393.262-.924.262-1.598V2.521c0-.685-.086-1.225-.262-1.617A1.91 1.91 0 000 0h5.74c-.043.09-.078.172-.101.243a.602.602 0 00-.035.203c0 .063.012.133.035.219.023.083.058.184.101.297l4.245 10.486L14.319.939a3.06 3.06 0 00.086-.271.672.672 0 00.031-.177.707.707 0 00-.035-.195A2.334 2.334 0 0014.276 0h5.857a1.93 1.93 0 00-.847.904c-.176.392-.262.932-.262 1.617v8.947c0 .665.078 1.179.23 1.539.152.359.41.686.777.975h-4.682c.367-.289.625-.615.777-.971.152-.354.23-.869.23-1.543V2.074l-4.807 11.011a.693.693 0 01-.043.117c-.063.16-.094.278-.094.355 0 .044.012.102.035.176.023.075.059.157.102.248H8.306a4.08 4.08 0 01.078-.252.605.605 0 00.035-.128c0-.082-.051-.243-.148-.481-.008-.023-.016-.04-.023-.055L3.569 1.836zm19.115 11.452c.352-.193.605-.465.763-.818.158-.35.236-.818.236-1.404V2.914c0-.578-.081-1.043-.243-1.4a1.75 1.75 0 00-.756-.821h12.921c-.06.215-.102.371-.123.465a1.094 1.094 0 00-.032.237c0 .119.081.402.243.853.162.452.289.84.376 1.165-.542-.318-1.182-.547-1.917-.692-.735-.144-1.643-.218-2.729-.218h-5.256v3.379h5.917c.299 0 .591-.025.869-.078a4.23 4.23 0 00.82-.243l-.866 1.467c-.13.215-.302.374-.51.477a1.716 1.716 0 01-.756.155h-5.474v3.831h5.432c1.059 0 2.019-.105 2.881-.32.862-.216 1.555-.519 2.076-.91a25.67 25.67 0 01-.5 1.221c-.232.528-.345.885-.345 1.064 0 .104.007.215.025.342.017.125.042.258.077.402H22.684v-.002zM42.871 2.449l.155 8.576c.014.655.095 1.146.243 1.467.148.324.394.589.746.797H39.75a1.75 1.75 0 00.767-.814c.155-.346.232-.829.232-1.449V2.963c0-.617-.078-1.1-.232-1.45a1.724 1.724 0 00-.767-.821l5.048.011c-.035.063-.06.117-.078.166a.375.375 0 00-.028.124c0 .042.011.084.032.134.021.049.067.13.133.247l6.209 9.858-.042-8.268c0-.609-.078-1.097-.236-1.457a1.673 1.673 0 00-.753-.814h4.155c-.338.201-.577.441-.718.723-.141.282-.211.769-.211 1.456v9.248c0 .275.021.498.067.667.045.169.12.336.222.501h-4.092c.042-.07.074-.134.099-.197a.45.45 0 00.035-.166.41.41 0 00-.042-.145 1.665 1.665 0 00-.134-.236L42.871 2.449zm28.763 8.702c.222.455.45.856.697 1.205.242.354.503.664.777.932h-4.172a1.83 1.83 0 00.348-.469c.077-.155.112-.317.112-.48 0-.137-.014-.282-.046-.434a2.073 2.073 0 00-.126-.405l-.485-.96h-7.958l-.401.826c-.053.13-.099.275-.134.43a2.072 2.072 0 00-.049.459c0 .208.039.398.116.575.08.173.193.328.345.458h-4.193c.281-.281.538-.589.774-.924.231-.336.467-.74.699-1.213l4.792-9.528a3.6 3.6 0 00.13-.321.735.735 0 00.035-.208.487.487 0 00-.043-.169 1.37 1.37 0 00-.102-.222l4.268-.011c-.056.11-.095.198-.118.265a.441.441 0 00-.035.159c0 .057.014.124.038.208.028.082.067.173.116.268l4.615 9.559zm-9.983-2.502h6.272l-3.212-6.426-3.06 6.426zM82.242.692c1.306 0 2.379.099 3.22.293.844.197 1.558.512 2.149.938a5.5 5.5 0 011.742 2.096c.41.854.618 1.792.618 2.812 0 4.62-3.44 6.458-7.638 6.458h-6.697c.357-.201.611-.473.766-.818.155-.342.232-.825.232-1.445V2.968c0-.621-.077-1.104-.232-1.454a1.722 1.722 0 00-.766-.821h6.606V.692zm-3.123 10.797h2.75c1.932 0 3.329-.363 4.191-1.086.861-.723 1.294-1.884 1.294-3.482 0-1.576-.437-2.705-1.309-3.393-.872-.684-2.343-1.026-4.412-1.026h-2.515v8.987h.001z"/></svg>