<svg xmlns="http://www.w3.org/2000/svg" width="150" height="29.224"><path fill-rule="evenodd" clip-rule="evenodd" fill="#1A1A18" d="M127.071 18.214l1.693-10.337 1.694 10.337h-3.387zm-1.729 10.334l.021-.145.017.145.888-5.427h4.987l.174 1.017.723 4.41.014-.117.019.117h6.618L132.744.668h-7.88l-6.099 27.88h6.577zm16.447-23.8c.301 0 .647.173.647.498v2.186c0 .308-.34.475-.647.475-.324 0-.649-.167-.649-.475V5.246c0-.317.331-.498.649-.498zm3.107 1.99l.959-1.365-.016 1.365h-.943zm-3.107 2.313c.796 0 1.672-.385 1.882-1.235h2.07v1.16h1.288v-1.16h.498V6.723h-.498V3.64h-1.108l-2.203 2.999V5.207c0-1.137-1.018-1.643-1.929-1.643-.904 0-1.931.505-1.931 1.643v2.209c0 1.131 1.027 1.635 1.931 1.635zM143.691 0a6.309 6.309 0 110 12.617 6.309 6.309 0 010-12.617zM85.792 17.36h2.157c1.523.113 2.044 1.228 2.228 2.938.134 1.224.096 5.192.104 8.25h6.669c-.152-3.563-.21-8.762-.341-10.332-.109-1.934-1.413-3.198-3.235-3.605l.003-.074c2.748-1.262 3.455-3.383 3.455-6.358.002-5.538-2.678-7.694-8.029-7.694L79.25.483v27.88h6.542V17.36zm0-11.857c3.198-.073 4.571.076 4.571 3.382 0 1.712-.445 3.459-2.343 3.459h-2.229V5.503zm24.997 14.336l.001-.806h-2.284v-5.018h8.885c0 2.558-.005 4.519-.005 7.076 0 5.732-3.335 8.132-8.96 8.132-6.031 0-8.843-2.849-8.843-8.958V8.885c0-6.059 2.789-8.885 8.771-8.885 5.259 0 8.5 2.116 8.854 7.121.014.203.024 1.307.029 1.521l-6.43 2.118V7.718a2.365 2.365 0 00-2.357-2.359 2.365 2.365 0 00-2.359 2.359v13.787a2.365 2.365 0 002.359 2.359 2.364 2.364 0 002.357-2.359v-1.667h-.018zM36.909 8.644c-.003-.14-.008-1.171-.016-1.306C36.616 2.177 33.32 0 27.988 0c-5.98 0-8.771 2.826-8.771 8.885l.002 11.447c0 5.688 2.34 8.892 8.362 8.892 6.691 0 9.441-3.352 9.441-8.146l.001-3.42h-6.538v3.847a2.365 2.365 0 01-2.358 2.359 2.35 2.35 0 01-1.816-.858c-.412-.428-.587-1.072-.587-1.892.015-4.464.045-8.932.045-13.396a2.366 2.366 0 012.358-2.359 2.366 2.366 0 012.358 2.359v3.042l6.424-2.116zm39.328 19.904v-5.575h-8.881V16.95h8.179v-5.573h-8.179v-5.13h8.439V.668H60.814v27.88h15.423zm-29.738 0V16.95h4.535v11.598h6.546V.668h-6.546v10.708h-4.535V.668H39.96v27.88h6.539zM0 6.246h5.128v22.302h6.545V6.246h5.278V.668H0v5.578z"/></svg>